<svg xmlns="http://www.w3.org/2000/svg" xmlns:xlink="http://www.w3.org/1999/xlink" id="Layer_1" x="0px" y="0px" viewBox="0 0 860 860" style="enable-background:new 0 0 860 860;" xml:space="preserve">
<style type="text/css">
	.st0{opacity:0.2;}
	.st1{opacity:0.6;}
	.st2{fill:#D1DCE6;}
	.st3{fill:url(#SVGID_1_);}
	.st4{fill:url(#SVGID_2_);}
	.st5{fill:url(#SVGID_3_);}
	.st6{fill:url(#SVGID_4_);}
	.st7{fill:url(#SVGID_5_);}
	.st8{fill:url(#SVGID_6_);}
	.st9{fill:url(#SVGID_7_);}
	.st10{fill:url(#SVGID_8_);}
	.st11{fill:url(#SVGID_9_);}
	.st12{fill:url(#SVGID_10_);}
	.st13{fill:url(#SVGID_11_);}
	.st14{fill:url(#SVGID_12_);}
	.st15{fill:url(#SVGID_13_);}
	.st16{fill:url(#SVGID_14_);}
	.st17{fill:url(#SVGID_15_);}
	.st18{fill:url(#SVGID_16_);}
	.st19{fill:url(#SVGID_17_);}
	.st20{fill:url(#SVGID_18_);}
	.st21{fill:url(#SVGID_19_);}
	.st22{fill:url(#SVGID_20_);}
	.st23{opacity:0.4;fill:url(#SVGID_21_);enable-background:new    ;}
	.st24{fill:#A5CBFA;}
	.st25{fill:url(#SVGID_22_);}
	.st26{opacity:0.4;fill:url(#SVGID_23_);}
	.st27{fill:url(#SVGID_24_);}
	.st28{opacity:0.6;fill:url(#SVGID_25_);}
	.st29{opacity:0.4;fill:url(#SVGID_26_);}
	.st30{opacity:0.19;fill:url(#SVGID_27_);}
	.st31{fill:url(#SVGID_28_);}
	.st32{opacity:0.19;fill:url(#SVGID_29_);}
	.st33{fill:url(#SVGID_30_);}
	.st34{fill:url(#SVGID_31_);}
	.st35{opacity:0.19;fill:url(#SVGID_32_);}
	.st36{fill:url(#SVGID_33_);}
	.st37{opacity:0.58;fill:url(#SVGID_34_);}
	.st38{fill:#DCEEFF;}
	.st39{fill:url(#SVGID_35_);}
	.st40{opacity:0.24;fill:url(#SVGID_36_);}
	.st41{opacity:0.4;fill:url(#SVGID_37_);}
	.st42{fill:url(#SVGID_38_);}
	.st43{fill:url(#SVGID_39_);}
	.st44{opacity:0.19;fill:url(#SVGID_40_);}
	.st45{fill:#A7AFD8;}
	.st46{fill:url(#SVGID_41_);}
	.st47{fill:url(#SVGID_42_);}
	.st48{fill:url(#SVGID_43_);}
	.st49{fill:url(#SVGID_44_);}
	.st50{fill:url(#SVGID_45_);}
	.st51{fill:url(#SVGID_46_);}
	.st52{fill:url(#SVGID_47_);}
	.st53{fill:url(#SVGID_48_);}
	.st54{fill:url(#SVGID_49_);}
	.st55{fill:url(#SVGID_50_);}
	.st56{clip-path:url(#SVGID_52_);}
	.st57{fill:#FDD2A7;}
	.st58{fill:#FDD1A7;}
	.st59{fill:#FDD0A6;}
	.st60{fill:#FDCFA6;}
	.st61{fill:#FDCEA6;}
	.st62{fill:#FDCDA5;}
	.st63{fill:#FDCCA5;}
	.st64{fill:#FDCBA5;}
	.st65{fill:#FDCAA4;}
	.st66{fill:#FDC9A4;}
	.st67{fill:#FDC8A4;}
	.st68{fill:#FDC7A3;}
	.st69{fill:#FDC6A3;}
	.st70{fill:#FDC5A3;}
	.st71{fill:#FDC4A2;}
	.st72{fill:#FCC3A2;}
	.st73{fill:#FCC2A2;}
	.st74{fill:#FCC1A1;}
	.st75{fill:#FCC0A1;}
	.st76{fill:#FCBFA1;}
	.st77{fill:#FCBEA0;}
	.st78{fill:#FCBDA0;}
	.st79{fill:#FCBCA0;}
	.st80{fill:#FCBB9F;}
	.st81{fill:#FCBA9F;}
	.st82{fill:#FCB99F;}
	.st83{fill:#FCB89E;}
	.st84{fill:#FCB79E;}
	.st85{fill:#FCB69E;}
	.st86{fill:#FCB59D;}
	.st87{fill:#FCB49D;}
	.st88{fill:#FCB39D;}
	.st89{fill:#FCB29C;}
	.st90{fill:#FCB19C;}
	.st91{fill:#FCB09C;}
	.st92{fill:#FCAF9B;}
	.st93{fill:#FCAE9B;}
	.st94{fill:#FCAD9B;}
	.st95{fill:#FCAC9A;}
	.st96{fill:#FCAB9A;}
	.st97{fill:#FCAA9A;}
	.st98{fill:#FCA999;}
	.st99{fill:#FCA899;}
	.st100{fill:#FCA799;}
	.st101{fill:#FBA698;}
	.st102{fill:#FBA598;}
	.st103{fill:#FBA498;}
	.st104{fill:#FBA397;}
	.st105{fill:#FBA297;}
	.st106{fill:#FBA197;}
	.st107{fill:#FBA096;}
	.st108{fill:#FB9F96;}
	.st109{fill:#FB9E96;}
	.st110{fill:#FB9D95;}
	.st111{fill:#FB9C95;}
	.st112{fill:#FB9B95;}
	.st113{fill:#FB9A94;}
	.st114{fill:#FB9994;}
	.st115{fill:#FB9894;}
	.st116{fill:#FB9793;}
	.st117{fill:#FB9693;}
	.st118{fill:#FB9593;}
	.st119{fill:#FB9492;}
	.st120{fill:#FB9392;}
	.st121{fill:#FB9292;}
	.st122{fill:#FB9191;}
	.st123{fill:#FB9091;}
	.st124{fill:#FB8F91;}
	.st125{fill:#FB8E90;}
	.st126{fill:#FB8D90;}
	.st127{fill:#FB8C90;}
	.st128{fill:#FB8B8F;}
	.st129{fill:#FB8A8F;}
	.st130{fill:#FB898F;}
	.st131{fill:#FA878E;}
	.st132{fill:#FA868E;}
	.st133{fill:#FA858D;}
	.st134{fill:#FA848D;}
	.st135{fill:#FA838D;}
	.st136{fill:#FA828C;}
	.st137{fill:#FA818C;}
	.st138{fill:#FA808C;}
	.st139{fill:#FA7F8B;}
	.st140{fill:#FA7E8B;}
	.st141{fill:#FA7D8B;}
	.st142{fill:#FA7C8A;}
	.st143{fill:#FA7B8A;}
	.st144{fill:#FA7A8A;}
	.st145{fill:#FA7989;}
	.st146{fill:#FA7889;}
	.st147{fill:#FA7789;}
	.st148{fill:#FA7688;}
	.st149{fill:#FA7588;}
	.st150{fill:#FA7488;}
	.st151{fill:#FA7387;}
	.st152{fill:#FA7287;}
	.st153{fill:#FA7187;}
	.st154{fill:#FA7086;}
	.st155{fill:#FA6F86;}
	.st156{fill:#FA6E86;}
	.st157{fill:#FA6D85;}
	.st158{fill:#FA6C85;}
	.st159{fill:#FA6B85;}
	.st160{fill:#F96A84;}
	.st161{fill:#F96984;}
	.st162{fill:#F96884;}
	.st163{fill:#F96783;}
	.st164{fill:#F96683;}
	.st165{fill:#F96583;}
	.st166{fill:#F96482;}
	.st167{fill:#F96382;}
	.st168{fill:#F96282;}
	.st169{fill:#F96181;}
	.st170{fill:#F96081;}
	.st171{fill:#F95F81;}
	.st172{fill:#F95E80;}
	.st173{fill:#F95D80;}
	.st174{fill:#F95C80;}
	.st175{fill:#F95B7F;}
	.st176{fill:#F95A7F;}
	.st177{fill:#F9597F;}
	.st178{fill:#F9587E;}
	.st179{fill:#F9577E;}
	.st180{fill:#F9567E;}
	.st181{fill:#F9557D;}
	.st182{fill:#F9547D;}
	.st183{fill:#F9537D;}
	.st184{fill:#F9527C;}
	.st185{fill:#F9517C;}
	.st186{fill:#F9507C;}
	.st187{fill:#F94F7B;}
	.st188{fill:#F94E7B;}
	.st189{fill:#F84D7B;}
	.st190{fill:#F84C7A;}
	.st191{fill:#F84B7A;}
	.st192{fill:#F84A7A;}
	.st193{fill:#F84979;}
	.st194{fill:#F84879;}
	.st195{fill:#F84779;}
	.st196{fill:#F84678;}
	.st197{fill:#F84578;}
	.st198{fill:#F84478;}
	.st199{fill:#F84377;}
	.st200{fill:#F84277;}
	.st201{fill:#F84177;}
	.st202{fill:#F84076;}
	.st203{fill:#F83F76;}
	.st204{fill:url(#SVGID_53_);}
	.st205{fill:#FFFFFF;}
	.st206{fill:url(#SVGID_54_);}
	.st207{fill:url(#SVGID_55_);}
	.st208{fill:url(#SVGID_56_);}
	.st209{fill:url(#SVGID_57_);}
	.st210{fill:url(#SVGID_58_);}
	.st211{fill:url(#SVGID_59_);}
	.st212{fill:url(#SVGID_60_);}
	.st213{fill:url(#SVGID_61_);}
	.st214{fill:url(#SVGID_62_);}
	.st215{fill:url(#SVGID_63_);}
	.st216{opacity:0.4;fill:url(#SVGID_64_);enable-background:new    ;}
	.st217{fill:url(#SVGID_65_);}
	.st218{fill:url(#SVGID_66_);}
	.st219{opacity:0.5;fill:url(#SVGID_67_);}
	.st220{opacity:0.32;fill:#FFFFFF;enable-background:new    ;}
	.st221{opacity:0.36;}
	.st222{clip-path:url(#SVGID_69_);}
	.st223{opacity:0.51;}
	.st224{opacity:0.1;enable-background:new    ;}
	.st225{opacity:0.1;}
	.st226{fill:url(#SVGID_70_);}
	.st227{fill:url(#SVGID_71_);}
	.st228{fill:url(#SVGID_72_);}
	.st229{opacity:0.17;fill:#788BF1;}
	.st230{fill:#A2D5DD;}
</style>
<g class="st0">
	<g>
		<g class="st1">
			<polygon class="st2" points="184.2,659.7 185.9,658.8 227.6,683.1 226,684    "></polygon>
			<polygon class="st2" points="657.5,230.2 659.1,229.3 700.9,253.6 699.2,254.6    "></polygon>
			<polygon class="st2" points="397.5,129.2 399.1,128.3 440.9,152.6 439.2,153.5    "></polygon>
			<g>
				<polygon class="st2" points="396.4,78.2 398,77.3 440.6,102.1 439,103     "></polygon>
				<polygon class="st2" points="440.6,103.9 442.2,103 484,127.3 482.4,128.3     "></polygon>
				<polygon class="st2" points="482.9,77.3 440.6,102.1 439,103 397.5,127.3 395.9,128.3 354.4,152.6 352.8,153.5 311.3,177.8       309.7,178.8 268.2,203.1 266.6,204.1 225.1,228.4 223.5,229.3 182,253.6 180.4,254.6 138.9,278.9 137.3,279.8 95.8,304.1       94.2,305.1 63.3,323.2 63.3,325.1 95.8,306 97.4,305.1 138.9,280.8 140.5,279.8 182,255.5 183.6,254.6 225.1,230.2 226.7,229.3       268.2,205 269.8,204.1 311.3,179.7 312.9,178.8 354.4,154.5 356,153.5 397.5,129.2 399.1,128.3 440.6,103.9 442.2,103       484.5,78.2     "></polygon>
				<polygon class="st2" points="353.3,103.5 354.9,102.5 397.5,127.3 395.9,128.3     "></polygon>
				<polygon class="st2" points="484,129.2 485.6,128.3 527.3,152.6 525.7,153.5     "></polygon>
				<polygon class="st2" points="310.2,128.7 311.8,127.8 354.4,152.6 352.8,153.5     "></polygon>
				<polygon class="st2" points="527.3,154.5 529,153.5 570.7,177.8 569.1,178.8     "></polygon>
				<polygon class="st2" points="440.9,154.4 442.5,153.5 484.2,177.8 482.6,178.8     "></polygon>
				<polygon class="st2" points="354.4,154.5 356,153.5 397.8,177.8 396.1,178.8     "></polygon>
				<polygon class="st2" points="267.1,154 268.7,153.1 311.3,177.8 309.7,178.8     "></polygon>
				<polygon class="st2" points="656.4,178.3 614.1,203.1 612.5,204 571,228.4 569.4,229.3 527.9,253.6 526.3,254.6 484.8,278.9       483.2,279.8 441.7,304.1 440.1,305.1 398.6,329.4 397,330.3 355.5,354.7 353.9,355.6 312.4,379.9 310.8,380.9 269.3,405.2       267.7,406.1 226.2,430.5 224.6,431.4 183.1,455.7 181.5,456.6 140,481 138.4,481.9 96.9,506.2 95.3,507.2 63.3,525.9       63.3,527.8 96.9,508.1 98.5,507.2 140,482.9 141.6,481.9 183.1,457.6 184.7,456.6 226.2,432.3 227.8,431.4 269.3,407.1       270.9,406.1 312.4,381.8 314,380.9 355.5,356.5 357.1,355.6 398.6,331.3 400.2,330.3 441.7,306 443.3,305.1 484.8,280.8       486.4,279.8 527.9,255.5 529.5,254.6 571,230.2 572.6,229.3 614.1,205 615.7,204 658,179.2     "></polygon>
				<polygon class="st2" points="570.7,179.7 572.3,178.8 614.1,203.1 612.5,204     "></polygon>
				<polygon class="st2" points="484.3,179.7 485.9,178.8 527.6,203.1 526,204     "></polygon>
				<polygon class="st2" points="569.6,127.8 527.3,152.6 525.7,153.5 484.2,177.8 482.6,178.8 441.1,203.1 439.5,204 398,228.4       396.4,229.3 354.9,253.6 353.3,254.6 311.8,278.9 310.2,279.8 268.7,304.1 267.1,305.1 225.6,329.4 224,330.3 182.5,354.7       180.9,355.6 139.4,379.9 137.8,380.9 96.3,405.2 94.7,406.1 63.3,424.6 63.3,426.5 96.4,407.1 98,406.1 139.5,381.8       141.1,380.9 182.6,356.5 184.2,355.6 225.7,331.3 227.3,330.4 268.8,306 270.4,305.1 311.9,280.8 313.5,279.8 355,255.5       356.6,254.6 398.1,230.2 399.7,229.3 441.1,205 442.8,204.1 484.3,179.7 485.9,178.8 527.3,154.5 529,153.5 571.2,128.7     "></polygon>
				<polygon class="st2" points="397.8,179.7 399.4,178.8 441.1,203.1 439.5,204     "></polygon>
				<polygon class="st2" points="311.3,179.7 312.9,178.8 354.7,203.1 353.1,204     "></polygon>
				<polygon class="st2" points="224,179.3 225.6,178.3 268.2,203.1 266.6,204.1     "></polygon>
				<polygon class="st2" points="699.8,203.6 657.5,228.4 655.9,229.3 614.4,253.6 612.8,254.6 571.3,278.9 569.7,279.8       528.2,304.1 526.6,305.1 485.1,329.4 483.5,330.4 442,354.7 440.4,355.6 398.9,379.9 397.3,380.9 355.8,405.2 354.2,406.1       312.7,430.5 311.1,431.4 269.6,455.7 268,456.7 226.5,481 224.9,481.9 183.4,506.2 181.8,507.2 140.3,531.5 138.7,532.4       97.2,556.8 95.6,557.7 63.3,576.6 63.3,578.5 97.2,558.6 98.8,557.7 140.3,533.4 141.9,532.4 183.4,508.1 185,507.2       226.5,482.9 228.1,481.9 269.6,457.6 271.2,456.7 312.7,432.3 314.3,431.4 355.8,407.1 357.4,406.1 398.9,381.8 400.5,380.9       442,356.5 443.6,355.6 485.1,331.3 486.7,330.4 528.2,306 529.8,305.1 571.3,280.8 572.9,279.8 614.4,255.5 616,254.6       657.5,230.2 659.1,229.3 701.4,204.5     "></polygon>
				<polygon class="st2" points="614.1,205 615.7,204 657.5,228.4 655.9,229.3     "></polygon>
				<polygon class="st2" points="527.6,205 529.2,204 571,228.4 569.4,229.3     "></polygon>
				<polygon class="st2" points="441.1,205 442.8,204.1 484.5,228.4 482.9,229.3     "></polygon>
				<polygon class="st2" points="354.7,205 356.3,204 398,228.4 396.4,229.3     "></polygon>
				<polygon class="st2" points="268.2,205 269.8,204.1 311.6,228.4 310,229.3     "></polygon>
				<polygon class="st2" points="180.9,204.5 182.5,203.6 225.1,228.4 223.5,229.3     "></polygon>
				<polygon class="st2" points="571,230.2 572.6,229.3 614.4,253.6 612.8,254.6     "></polygon>
				<polygon class="st2" points="484.5,230.2 486.1,229.3 527.9,253.6 526.3,254.6     "></polygon>
				<polygon class="st2" points="398.1,230.2 399.7,229.3 441.4,253.6 439.8,254.6     "></polygon>
				<polygon class="st2" points="311.6,230.2 313.2,229.3 354.9,253.6 353.3,254.6     "></polygon>
				<polygon class="st2" points="225.1,230.2 226.7,229.3 268.5,253.6 266.9,254.6     "></polygon>
				<polygon class="st2" points="137.8,229.8 139.4,228.8 182,253.6 180.4,254.6     "></polygon>
				<polygon class="st2" points="700.9,255.5 702.5,254.6 744.2,278.9 742.6,279.8     "></polygon>
				<polygon class="st2" points="614.4,255.5 616,254.6 657.8,278.9 656.2,279.8     "></polygon>
				<polygon class="st2" points="527.9,255.5 529.5,254.6 571.3,278.9 569.7,279.8     "></polygon>
				<polygon class="st2" points="441.4,255.5 443,254.6 484.8,278.9 483.2,279.8     "></polygon>
				<polygon class="st2" points="355,255.5 356.6,254.6 398.3,278.9 396.7,279.8     "></polygon>
				<polygon class="st2" points="268.5,255.5 270.1,254.6 311.8,278.9 310.2,279.8     "></polygon>
				<polygon class="st2" points="182,255.5 183.6,254.6 225.4,278.9 223.8,279.8     "></polygon>
				<polygon class="st2" points="94.7,255 96.3,254.1 138.9,278.9 137.3,279.8     "></polygon>
				<polygon class="st2" points="571.9,381.8 573.5,380.9 615.2,405.2 613.6,406.1     "></polygon>
				<polygon class="st2" points="528.8,407.1 530.4,406.1 572.1,430.5 570.5,431.4     "></polygon>
				<polygon class="st2" points="485.7,432.3 487.3,431.4 529,455.7 527.4,456.6     "></polygon>
				<polygon class="st2" points="442.6,457.6 444.2,456.6 485.9,481 484.3,481.9     "></polygon>
				<polygon class="st2" points="399.5,482.9 401.1,481.9 442.8,506.2 441.2,507.2     "></polygon>
				<polygon class="st2" points="356.4,508.1 358,507.2 399.7,531.5 398.1,532.4     "></polygon>
				<polygon class="st2" points="313.3,533.4 314.9,532.4 356.6,556.8 355,557.7     "></polygon>
				<polygon class="st2" points="270.2,558.7 271.8,557.7 313.5,582 311.9,583     "></polygon>
				<polygon class="st2" points="227.1,583.9 228.7,583 270.4,607.3 268.8,608.2     "></polygon>
				<polygon class="st2" points="184,609.2 185.6,608.2 227.4,632.5 225.7,633.5     "></polygon>
				<polygon class="st2" points="140.9,634.4 142.5,633.5 184.2,657.8 182.6,658.8     "></polygon>
				<polygon class="st2" points="795.4,299.6 787.6,304.1 786,305.1 744.5,329.4 742.9,330.3 701.4,354.7 699.8,355.6 658.3,379.9       656.7,380.9 615.2,405.2 613.6,406.1 572.1,430.5 570.5,431.4 529,455.7 527.4,456.6 485.9,481 484.3,481.9 442.8,506.2       441.2,507.2 399.7,531.5 398.1,532.4 356.6,556.8 356.6,556.8 355,557.7 355,557.7 313.5,582 311.9,583 270.4,607.3       268.8,608.2 227.4,632.5 225.7,633.5 184.2,657.8 182.6,658.8 140.3,683.5 141.9,684.5 184.2,659.7 185.9,658.8 227.4,634.4       229,633.5 270.4,609.2 272.1,608.2 313.5,583.9 315.2,583 356.6,558.6 358.2,557.7 399.7,533.4 401.4,532.4 442.9,508.1       444.5,507.2 485.9,482.9 487.5,481.9 529,457.6 530.7,456.6 572.1,432.3 573.8,431.4 615.2,407.1 616.8,406.1 658.3,381.8       659.9,380.9 701.4,356.5 703,355.6 744.5,331.3 746.1,330.3 787.6,306 789.2,305.1 795.4,301.5     "></polygon>
				<polygon class="st2" points="744.3,280.8 745.9,279.8 787.6,304.1 786,305.1     "></polygon>
				<polygon class="st2" points="788.2,255 745.9,279.8 744.2,280.8 702.8,305.1 701.2,306 659.7,330.4 658.1,331.3 616.6,355.6       615,356.5 573.5,380.9 571.8,381.8 530.4,406.1 528.8,407.1 487.3,431.4 485.7,432.3 444.2,456.6 442.6,457.6 401.1,481.9       399.5,482.9 358,507.2 356.4,508.1 314.9,532.4 313.3,533.4 271.8,557.7 270.2,558.7 228.7,583 227.1,583.9 185.6,608.2       184,609.2 142.5,633.5 140.9,634.4 98.6,659.2 96.9,658.3 139.2,633.5 140.9,632.5 182.4,608.2 183.9,607.3 225.4,583       227.1,582 268.5,557.7 270.2,556.8 311.6,532.4 313.2,531.5 354.7,507.2 356.3,506.2 397.8,481.9 399.5,481 440.9,456.6       442.5,455.7 484,431.4 485.6,430.4 527.1,406.1 528.7,405.2 570.2,380.9 571.8,379.9 613.3,355.6 614.9,354.7 656.4,330.3       658,329.4 699.5,305.1 701.1,304.1 742.6,279.8 744.2,278.9 786.5,254.1     "></polygon>
				<polygon class="st2" points="571.3,280.8 572.9,279.8 614.7,304.1 613,305.1     "></polygon>
				<polygon class="st2" points="484.8,280.8 486.4,279.8 528.2,304.1 526.6,305.1     "></polygon>
				<polygon class="st2" points="398.3,280.8 399.9,279.8 441.7,304.1 440.1,305.1     "></polygon>
				<polygon class="st2" points="311.9,280.8 313.5,279.8 355.2,304.1 353.6,305.1     "></polygon>
				<polygon class="st2" points="225.4,280.8 227,279.8 268.7,304.1 267.1,305.1     "></polygon>
				<polygon class="st2" points="138.9,280.8 140.5,279.8 182.3,304.1 180.7,305.1     "></polygon>
				<polygon class="st2" points="63.3,285.2 63.3,287.1 94.2,305.1 95.8,304.1     "></polygon>
				<polygon class="st2" points="795.4,350.2 787.9,354.7 786.3,355.6 744.8,379.9 743.2,380.9 701.7,405.2 700.1,406.1       658.6,430.5 657,431.4 615.5,455.7 613.9,456.6 572.4,481 570.8,481.9 529.3,506.2 527.7,507.2 486.2,531.5 484.6,532.4       443.1,556.8 441.5,557.7 400,582 398.4,583 356.9,607.3 355.3,608.2 313.8,632.5 312.2,633.5 270.7,657.8 269.1,658.7       227.6,683.1 226,684 183.7,708.8 185.3,709.7 227.6,684.9 229.2,684 270.7,659.7 272.3,658.7 313.8,634.4 315.4,633.5       356.9,609.2 358.5,608.2 400,583.9 401.6,583 443.1,558.6 444.7,557.7 486.2,533.4 487.8,532.4 529.3,508.1 530.9,507.2       572.4,482.9 574,481.9 615.5,457.6 617.1,456.6 658.6,432.3 660.2,431.4 701.7,407.1 703.3,406.1 744.8,381.8 746.4,380.9       787.9,356.5 789.5,355.6 795.4,352.1     "></polygon>
				<polygon class="st2" points="795.4,308.7 789.2,305.1 787.6,306 795.4,310.6     "></polygon>
				<polygon class="st2" points="701.2,306 702.8,305.1 744.5,329.4 742.9,330.3     "></polygon>
				<polygon class="st2" points="614.7,306 616.3,305.1 658,329.4 656.4,330.3     "></polygon>
				<polygon class="st2" points="528.2,306 529.8,305.1 571.6,329.4 570,330.3     "></polygon>
				<polygon class="st2" points="441.7,306 443.3,305.1 485.1,329.4 483.5,330.4     "></polygon>
				<polygon class="st2" points="355.2,306 356.8,305.1 398.6,329.4 397,330.3     "></polygon>
				<polygon class="st2" points="268.8,306 270.4,305.1 312.1,329.4 310.5,330.3     "></polygon>
				<polygon class="st2" points="182.3,306 183.9,305.1 225.6,329.4 224,330.3     "></polygon>
				<polygon class="st2" points="95.8,306 97.4,305.1 139.2,329.4 137.6,330.3     "></polygon>
				<polygon class="st2" points="744.5,331.3 746.1,330.3 787.9,354.7 786.3,355.6     "></polygon>
				<polygon class="st2" points="658.1,331.3 659.7,330.4 701.4,354.7 699.8,355.6     "></polygon>
				<polygon class="st2" points="571.6,331.3 573.2,330.3 614.9,354.7 613.3,355.6     "></polygon>
				<polygon class="st2" points="485.1,331.3 486.7,330.4 528.5,354.7 526.8,355.6     "></polygon>
				<polygon class="st2" points="398.6,331.3 400.2,330.3 442,354.7 440.4,355.6     "></polygon>
				<polygon class="st2" points="312.1,331.3 313.8,330.3 355.5,354.7 353.9,355.6     "></polygon>
				<polygon class="st2" points="225.7,331.3 227.3,330.4 269,354.7 267.4,355.6     "></polygon>
				<polygon class="st2" points="139.2,331.3 140.8,330.3 182.5,354.7 180.9,355.6     "></polygon>
				<polygon class="st2" points="63.3,335.6 63.3,337.5 94.5,355.6 96.1,354.7     "></polygon>
				<polygon class="st2" points="795.4,359 789.5,355.6 787.9,356.5 795.4,360.9     "></polygon>
				<polygon class="st2" points="701.4,356.5 703,355.6 744.8,379.9 743.2,380.9     "></polygon>
				<polygon class="st2" points="615,356.5 616.6,355.6 658.3,379.9 656.7,380.9     "></polygon>
				<polygon class="st2" points="528.5,356.5 530.1,355.6 571.8,379.9 570.2,380.9     "></polygon>
				<polygon class="st2" points="442,356.5 443.6,355.6 485.4,379.9 483.8,380.9     "></polygon>
				<polygon class="st2" points="355.5,356.5 357.1,355.6 398.9,379.9 397.3,380.9     "></polygon>
				<polygon class="st2" points="269,356.5 270.6,355.6 312.4,379.9 310.8,380.9     "></polygon>
				<polygon class="st2" points="182.6,356.5 184.2,355.6 225.9,379.9 224.3,380.9     "></polygon>
				<polygon class="st2" points="96.1,356.5 97.7,355.6 139.4,379.9 137.8,380.9     "></polygon>
				<polygon class="st2" points="795.4,502.3 788.7,506.2 787.1,507.2 745.6,531.5 744,532.4 702.5,556.7 700.9,557.7 659.4,582       657.8,583 616.3,607.3 614.7,608.2 573.2,632.5 571.6,633.5 530.2,657.8 528.5,658.7 487.1,683 485.4,684 444,708.3       442.3,709.3 400.9,733.6 399.2,734.5 357.8,758.8 356.1,759.8 313.8,784.6 315.5,785.5 357.8,760.7 359.4,759.8 400.9,735.5       402.5,734.5 444,710.2 445.6,709.3 487.1,685 488.7,684 530.2,659.7 531.8,658.7 573.3,634.4 574.9,633.5 616.4,609.2       618,608.2 659.5,583.9 661.1,583 702.6,558.6 704.2,557.7 745.7,533.4 747.3,532.4 788.8,508.1 790.4,507.2 795.4,504.2     "></polygon>
				<polygon class="st2" points="443.1,558.6 444.7,557.7 486.5,582 484.9,583     "></polygon>
				<polygon class="st2" points="400,583.9 401.6,583 443.4,607.3 441.8,608.2     "></polygon>
				<polygon class="st2" points="356.9,609.2 358.5,608.2 400.3,632.5 398.7,633.5     "></polygon>
				<polygon class="st2" points="313.8,634.4 315.4,633.5 357.2,657.8 355.6,658.7     "></polygon>
				<polygon class="st2" points="795.4,400.9 788.2,405.2 786.6,406.1 745.1,430.5 743.5,431.4 702,455.7 700.4,456.6 658.9,481       657.3,481.9 615.8,506.2 614.2,507.2 572.7,531.5 571.1,532.4 529.6,556.8 528,557.7 486.5,582 486.5,582 484.9,583       443.4,607.3 441.8,608.2 441.8,608.2 400.3,632.5 398.7,633.5 357.2,657.8 355.6,658.7 314.1,683.1 312.5,684 271,708.3       269.4,709.3 227.1,734.1 228.7,735 271,710.2 272.6,709.3 314.1,684.9 315.7,684 357.2,659.7 358.8,658.7 400.3,634.4       401.9,633.5 443.4,609.2 445,608.2 486.5,583.9 488.1,583 529.6,558.6 531.2,557.7 572.7,533.4 574.3,532.4 615.8,508.1       617.4,507.2 658.9,482.9 660.5,481.9 702,457.6 703.6,456.6 745.1,432.3 746.7,431.4 788.2,407.1 789.8,406.1 795.4,402.8           "></polygon>
				<polygon class="st2" points="744.8,381.8 746.4,380.9 788.2,405.2 786.6,406.1     "></polygon>
				<polygon class="st2" points="658.3,381.8 659.9,380.9 701.7,405.2 700.1,406.1     "></polygon>
				<polygon class="st2" points="485.4,381.8 487,380.9 528.7,405.2 527.1,406.1     "></polygon>
				<polygon class="st2" points="398.9,381.8 400.5,380.9 442.3,405.2 440.7,406.1     "></polygon>
				<polygon class="st2" points="312.4,381.8 314,380.9 355.8,405.2 354.2,406.1     "></polygon>
				<polygon class="st2" points="225.9,381.8 227.6,380.9 269.3,405.2 267.7,406.1     "></polygon>
				<polygon class="st2" points="139.5,381.8 141.1,380.9 182.8,405.2 181.2,406.1     "></polygon>
				<polygon class="st2" points="63.3,385.9 63.3,387.8 94.7,406.1 96.3,405.2     "></polygon>
				<polygon class="st2" points="392.8,790.9 401.1,786 402.8,785 444.2,760.7 445.9,759.8 487.4,735.5 489,734.5 530.4,710.2       532.1,709.3 573.5,684.9 575.2,684 616.6,659.7 618.2,658.7 659.8,634.4 661.3,633.5 702.8,609.2 704.5,608.2 746,583.9       747.5,583 789,558.6 790.6,557.7 795.4,554.9 795.4,553 789,556.8 787.4,557.7 745.9,582 744.3,583 702.8,607.3 701.2,608.2       659.7,632.5 658.1,633.5 616.6,657.8 615,658.7 573.5,683.1 571.9,684 530.4,708.3 528.8,709.3 487.3,733.6 485.7,734.5       444.2,758.8 442.6,759.8 401.1,784.1 399.5,785 389.6,790.9     "></polygon>
				<polygon class="st2" points="795.4,409.4 789.8,406.1 788.2,407.1 795.4,411.3     "></polygon>
				<polygon class="st2" points="701.7,407.1 703.3,406.1 745.1,430.5 743.5,431.4     "></polygon>
				<polygon class="st2" points="615.2,407.1 616.8,406.1 658.6,430.5 657,431.4     "></polygon>
				<polygon class="st2" points="442.3,407.1 443.9,406.1 485.6,430.4 484,431.4     "></polygon>
				<polygon class="st2" points="355.8,407.1 357.4,406.1 399.2,430.5 397.6,431.4     "></polygon>
				<polygon class="st2" points="269.3,407.1 270.9,406.1 312.7,430.5 311.1,431.4     "></polygon>
				<polygon class="st2" points="182.8,407.1 184.4,406.1 226.2,430.5 224.6,431.4     "></polygon>
				<polygon class="st2" points="96.4,407.1 98,406.1 139.7,430.5 138.1,431.4     "></polygon>
				<polygon class="st2" points="479.3,790.9 487.6,786 489.2,785 530.7,760.7 532.3,759.8 573.8,735.5 575.4,734.5 616.9,710.2       618.5,709.3 660,684.9 661.6,684 703.1,659.7 704.7,658.7 746.2,634.4 747.8,633.5 789.3,609.2 790.9,608.2 795.4,605.6       795.4,603.7 789.3,607.3 787.7,608.2 746.2,632.5 744.6,633.5 703.1,657.8 701.5,658.7 660,683.1 658.4,684 616.9,708.3       615.3,709.3 573.8,733.6 572.2,734.5 530.7,758.8 529.1,759.8 487.6,784.1 486,785 476.1,790.9     "></polygon>
				<polygon class="st2" points="745.1,432.3 746.7,431.4 788.5,455.7 786.9,456.6     "></polygon>
				<polygon class="st2" points="658.6,432.3 660.2,431.4 702,455.7 700.4,456.6     "></polygon>
				<polygon class="st2" points="572.1,432.3 573.8,431.4 615.5,455.7 613.9,456.6     "></polygon>
				<polygon class="st2" points="399.2,432.3 400.8,431.4 442.5,455.7 440.9,456.6     "></polygon>
				<polygon class="st2" points="312.7,432.3 314.3,431.4 356.1,455.7 354.5,456.6     "></polygon>
				<polygon class="st2" points="226.2,432.3 227.8,431.4 269.6,455.7 268,456.7     "></polygon>
				<polygon class="st2" points="139.8,432.3 141.4,431.4 183.1,455.7 181.5,456.6     "></polygon>
				<polygon class="st2" points="63.3,436.3 63.3,438.2 95,456.7 96.7,455.7     "></polygon>
				<polygon class="st2" points="795.4,459.8 790.1,456.6 788.5,457.6 795.4,461.6     "></polygon>
				<polygon class="st2" points="702,457.6 703.6,456.6 745.4,481 743.8,481.9     "></polygon>
				<polygon class="st2" points="615.5,457.6 617.1,456.6 658.9,481 657.3,481.9     "></polygon>
				<polygon class="st2" points="529,457.6 530.7,456.6 572.4,481 570.8,481.9     "></polygon>
				<polygon class="st2" points="356.1,457.6 357.7,456.6 399.5,481 397.8,481.9     "></polygon>
				<polygon class="st2" points="269.6,457.6 271.2,456.7 313,481 311.4,481.9     "></polygon>
				<polygon class="st2" points="183.1,457.6 184.7,456.6 226.5,481 224.9,481.9     "></polygon>
				<polygon class="st2" points="96.6,457.6 98.3,456.6 140,481 138.4,481.9     "></polygon>
				<polygon class="st2" points="745.4,482.9 747,481.9 788.7,506.2 787.1,507.2     "></polygon>
				<polygon class="st2" points="658.9,482.9 660.5,481.9 702.3,506.2 700.7,507.2     "></polygon>
				<polygon class="st2" points="572.4,482.8 574,481.9 615.8,506.2 614.2,507.2     "></polygon>
				<polygon class="st2" points="485.9,482.9 487.5,481.9 529.3,506.2 527.7,507.2     "></polygon>
				<polygon class="st2" points="313,482.9 314.6,481.9 356.3,506.2 354.7,507.2     "></polygon>
				<polygon class="st2" points="226.5,482.9 228.1,481.9 269.9,506.2 268.3,507.2     "></polygon>
				<polygon class="st2" points="140,482.9 141.6,481.9 183.4,506.2 181.8,507.2     "></polygon>
				<polygon class="st2" points="63.3,486.7 63.3,488.5 95.3,507.2 96.9,506.2     "></polygon>
				<polygon class="st2" points="526.2,102.5 484,127.3 482.4,128.3 440.9,152.6 439.2,153.5 397.8,177.8 396.1,178.8 354.7,203.1       353.1,204 311.6,228.4 310,229.3 268.5,253.6 266.9,254.6 225.4,278.9 223.8,279.8 182.3,304.1 180.7,305.1 139.2,329.4       137.6,330.3 96.1,354.7 94.5,355.6 63.3,373.9 63.3,375.8 96.1,356.5 97.7,355.6 139.2,331.3 140.8,330.3 182.3,306       183.9,305.1 225.4,280.8 227,279.8 268.5,255.5 270.1,254.6 311.6,230.2 313.2,229.3 354.7,205 356.3,204 397.8,179.7       399.4,178.8 440.9,154.4 442.5,153.5 484,129.2 485.6,128.3 527.9,103.5     "></polygon>
				<polygon class="st2" points="795.4,510.1 790.4,507.2 788.8,508.1 795.4,512     "></polygon>
				<polygon class="st2" points="702.3,508.1 703.9,507.2 745.6,531.5 744,532.4     "></polygon>
				<polygon class="st2" points="615.8,508.1 617.4,507.2 659.2,531.5 657.6,532.4     "></polygon>
				<polygon class="st2" points="529.3,508.1 530.9,507.2 572.7,531.5 571.1,532.4     "></polygon>
				<polygon class="st2" points="442.9,508.1 444.5,507.2 486.2,531.5 484.6,532.4     "></polygon>
				<polygon class="st2" points="269.9,508.1 271.5,507.2 313.2,531.5 311.6,532.4     "></polygon>
				<polygon class="st2" points="183.4,508.1 185,507.2 226.8,531.5 225.2,532.4     "></polygon>
				<polygon class="st2" points="96.9,508.1 98.5,507.2 140.3,531.5 138.7,532.4     "></polygon>
				<polygon class="st2" points="745.7,533.4 747.3,532.4 789,556.8 787.4,557.7     "></polygon>
				<polygon class="st2" points="659.2,533.4 660.8,532.4 702.5,556.7 700.9,557.7     "></polygon>
				<polygon class="st2" points="572.7,533.4 574.3,532.4 616.1,556.8 614.5,557.7     "></polygon>
				<polygon class="st2" points="486.2,533.4 487.8,532.4 529.6,556.8 528,557.7     "></polygon>
				<polygon class="st2" points="399.7,533.4 401.4,532.4 443.1,556.8 441.5,557.7     "></polygon>
				<polygon class="st2" points="226.8,533.4 228.4,532.4 270.2,556.8 268.5,557.7     "></polygon>
				<polygon class="st2" points="140.3,533.4 141.9,532.4 183.7,556.8 182.1,557.7     "></polygon>
				<polygon class="st2" points="63.3,537 63.3,538.9 95.6,557.7 97.2,556.8     "></polygon>
				<polygon class="st2" points="613,153.1 570.7,177.8 569.1,178.8 527.6,203.1 526,204 484.5,228.4 482.9,229.3 441.4,253.6       439.8,254.6 398.3,278.9 396.7,279.8 355.2,304.1 353.6,305.1 312.1,329.4 310.5,330.3 269,354.7 267.4,355.6 225.9,379.9       224.3,380.9 182.8,405.2 181.2,406.1 139.7,430.5 138.1,431.4 96.6,455.7 95,456.7 63.3,475.2 63.3,477.1 96.6,457.6       98.3,456.6 139.8,432.3 141.4,431.4 182.8,407.1 184.4,406.1 225.9,381.8 227.6,380.9 269,356.5 270.6,355.6 312.1,331.3       313.8,330.3 355.2,306 356.8,305.1 398.3,280.8 399.9,279.8 441.4,255.5 443,254.6 484.5,230.2 486.1,229.3 527.6,205       529.2,204 570.7,179.7 572.3,178.8 614.6,154     "></polygon>
				<polygon class="st2" points="795.4,560.5 790.7,557.7 789,558.6 795.4,562.4     "></polygon>
				<polygon class="st2" points="702.6,558.6 704.2,557.7 745.9,582 744.3,583     "></polygon>
				<polygon class="st2" points="616.1,558.6 617.7,557.7 659.4,582 657.8,583     "></polygon>
				<polygon class="st2" points="529.6,558.6 531.2,557.7 573,582 571.4,583     "></polygon>
				<polygon class="st2" points="356.6,558.6 358.2,557.7 400,582 398.4,583     "></polygon>
				<polygon class="st2" points="183.7,558.6 185.3,557.7 227.1,582 225.4,583     "></polygon>
				<polygon class="st2" points="97.2,558.6 98.8,557.7 140.6,582 139,583     "></polygon>
				<polygon class="st2" points="746,583.9 747.5,583 789.3,607.3 787.7,608.2     "></polygon>
				<polygon class="st2" points="659.5,583.9 661.1,583 702.8,607.3 701.2,608.2     "></polygon>
				<polygon class="st2" points="573,583.9 574.6,583 616.3,607.3 614.7,608.2     "></polygon>
				<polygon class="st2" points="486.5,583.9 488.1,583 529.9,607.3 528.3,608.2     "></polygon>
				<polygon class="st2" points="313.5,583.9 315.2,583 356.9,607.3 355.3,608.2     "></polygon>
				<polygon class="st2" points="140.6,583.9 142.2,583 183.9,607.3 182.4,608.2     "></polygon>
				<polygon class="st2" points="63.3,587.4 63.3,589.3 95.9,608.2 97.5,607.3     "></polygon>
				<polygon class="st2" points="702.8,609.2 704.5,608.2 746.2,632.5 744.6,633.5     "></polygon>
				<polygon class="st2" points="795.4,610.8 790.9,608.2 789.3,609.2 795.4,612.7     "></polygon>
				<polygon class="st2" points="616.4,609.2 618,608.2 659.7,632.5 658.1,633.5     "></polygon>
				<polygon class="st2" points="529.9,609.2 531.5,608.2 573.2,632.5 571.6,633.5     "></polygon>
				<polygon class="st2" points="443.4,609.2 445,608.2 486.8,632.5 485.2,633.5     "></polygon>
				<polygon class="st2" points="270.4,609.2 272.1,608.2 313.8,632.5 312.2,633.5     "></polygon>
				<polygon class="st2" points="97.5,609.2 99.1,608.2 140.9,632.5 139.2,633.5     "></polygon>
				<polygon class="st2" points="743.2,228.8 700.9,253.6 699.2,254.6 657.8,278.9 656.2,279.8 614.7,304.1 613,305.1 571.6,329.4       570,330.3 528.5,354.7 526.8,355.6 485.4,379.9 483.8,380.9 442.3,405.2 440.7,406.1 399.2,430.5 397.6,431.4 356.1,455.7       354.5,456.6 313,481 311.4,481.9 269.9,506.2 268.3,507.2 226.8,531.5 225.2,532.4 183.7,556.8 182.1,557.7 140.6,582 139,583       97.5,607.3 95.9,608.2 63.3,627.3 63.3,629.2 97.5,609.2 99.1,608.2 140.6,583.9 142.2,583 183.7,558.6 185.3,557.7       226.8,533.4 228.4,532.4 269.9,508.1 271.5,507.2 313,482.9 314.6,481.9 356.1,457.6 357.7,456.6 399.2,432.3 400.8,431.4       442.3,407.1 443.9,406.1 485.4,381.8 487,380.9 528.5,356.5 530.1,355.6 571.6,331.3 573.2,330.3 614.7,306 616.3,305.1       657.8,280.8 659.4,279.8 700.9,255.5 702.5,254.6 744.8,229.8     "></polygon>
				<polygon class="st2" points="659.8,634.4 661.3,633.5 703.1,657.8 701.5,658.7     "></polygon>
				<polygon class="st2" points="747.8,633.5 790.4,658.3 788.8,659.2 746.2,634.4     "></polygon>
				<polygon class="st2" points="573.3,634.4 574.9,633.5 616.6,657.8 615,658.7     "></polygon>
				<polygon class="st2" points="486.8,634.4 488.4,633.5 530.2,657.8 528.5,658.7     "></polygon>
				<polygon class="st2" points="400.3,634.4 401.9,633.5 443.7,657.8 442.1,658.7     "></polygon>
				<polygon class="st2" points="227.4,634.4 229,633.5 270.7,657.8 269.1,658.7     "></polygon>
				<polygon class="st2" points="616.6,659.7 618.2,658.7 660,683.1 658.4,684     "></polygon>
				<polygon class="st2" points="704.7,658.7 747.3,683.5 745.7,684.5 703.1,659.7     "></polygon>
				<polygon class="st2" points="530.2,659.7 531.8,658.7 573.5,683.1 571.9,684     "></polygon>
				<polygon class="st2" points="443.7,659.7 445.3,658.7 487.1,683 485.4,684     "></polygon>
				<polygon class="st2" points="357.2,659.7 358.8,658.7 400.6,683.1 399,684     "></polygon>
				<polygon class="st2" points="270.7,659.7 272.3,658.7 314.1,683.1 312.5,684     "></polygon>
				<polygon class="st2" points="573.5,684.9 575.2,684 616.9,708.3 615.3,709.3     "></polygon>
				<polygon class="st2" points="661.6,684 704.2,708.8 702.6,709.7 660,684.9     "></polygon>
				<polygon class="st2" points="487.1,685 488.7,684 530.5,708.3 528.8,709.3     "></polygon>
				<polygon class="st2" points="400.6,684.9 402.2,684 444,708.3 442.3,709.3     "></polygon>
				<polygon class="st2" points="314.1,684.9 315.7,684 357.5,708.3 355.9,709.3     "></polygon>
				<polygon class="st2" points="227.6,684.9 229.2,684 271,708.3 269.4,709.3     "></polygon>
				<polygon class="st2" points="530.4,710.2 532.1,709.3 573.8,733.6 572.2,734.5     "></polygon>
				<polygon class="st2" points="618.5,709.3 661.1,734 659.5,735 616.9,710.2     "></polygon>
				<polygon class="st2" points="444,710.2 445.6,709.3 487.3,733.6 485.7,734.5     "></polygon>
				<polygon class="st2" points="357.5,710.2 359.1,709.3 400.9,733.6 399.2,734.5     "></polygon>
				<polygon class="st2" points="271,710.2 272.6,709.3 314.4,733.6 312.8,734.5     "></polygon>
				<polygon class="st2" points="487.4,735.5 489,734.5 530.7,758.8 529.1,759.8     "></polygon>
				<polygon class="st2" points="575.4,734.5 618,759.3 616.4,760.3 573.8,735.5     "></polygon>
				<polygon class="st2" points="400.9,735.5 402.5,734.5 444.2,758.8 442.6,759.8     "></polygon>
				<polygon class="st2" points="314.4,735.5 316,734.5 357.8,758.8 356.1,759.8     "></polygon>
				<polygon class="st2" points="795.4,451.6 788.5,455.7 786.9,456.6 745.4,481 743.8,481.9 702.3,506.2 700.7,507.2 659.2,531.5       657.6,532.4 616.1,556.8 614.5,557.7 573,582 571.4,583 529.9,607.3 528.3,608.2 486.8,632.5 485.2,633.5 443.7,657.8       442.1,658.7 400.6,683.1 399,684 357.5,708.3 355.9,709.3 314.4,733.6 312.8,734.5 270.5,759.3 272.1,760.3 314.4,735.5       316,734.5 357.5,710.2 359.1,709.3 400.6,684.9 402.2,684 443.7,659.7 445.3,658.7 486.8,634.4 488.4,633.5 529.9,609.2       531.5,608.2 573,583.9 574.6,583 616.1,558.6 617.7,557.7 659.2,533.4 660.8,532.4 702.3,508.1 703.9,507.2 745.4,482.9       747,481.9 788.5,457.6 790.1,456.6 795.4,453.5     "></polygon>
				<polygon class="st2" points="444.3,760.7 445.9,759.8 487.6,784.1 486,785     "></polygon>
				<polygon class="st2" points="532.3,759.8 574.9,784.6 573.3,785.5 530.7,760.7     "></polygon>
				<polygon class="st2" points="357.8,760.7 359.4,759.8 401.1,784.1 399.5,785     "></polygon>
				<polygon class="st2" points="412.8,790.9 402.8,785 401.1,786 409.5,790.9     "></polygon>
				<polygon class="st2" points="499.2,790.9 489.2,785 487.6,786 496,790.9     "></polygon>
				<polygon class="st2" points="657.7,280.8 659.3,279.8 701.1,304.2 699.5,305.1     "></polygon>
			</g>
		</g>
	</g>
</g>
<g>
	
		<linearGradient id="SVGID_1_" gradientUnits="userSpaceOnUse" x1="-358.8367" y1="305.3048" x2="-336.4767" y2="305.3048" gradientTransform="matrix(-0.78 0.63 -0.63 -0.78 151.01 759.36)">
		<stop offset="0" style="stop-color:#0099FF"></stop>
		<stop offset="0.48" style="stop-color:#3757F5"></stop>
		<stop offset="0.76" style="stop-color:#264FD3"></stop>
		<stop offset="1" style="stop-color:#1A49BA"></stop>
	</linearGradient>
	<path class="st3" d="M249.7,324c0,0-16.9-62-40-43.5C209.7,280.6,192.8,292.5,249.7,324z"></path>
	
		<linearGradient id="SVGID_2_" gradientUnits="userSpaceOnUse" x1="-348.6067" y1="271.2487" x2="-318.9067" y2="271.2487" gradientTransform="matrix(-0.78 0.63 -0.63 -0.78 151.01 759.36)">
		<stop offset="0" style="stop-color:#0099FF"></stop>
		<stop offset="0.48" style="stop-color:#3757F5"></stop>
		<stop offset="0.76" style="stop-color:#264FD3"></stop>
		<stop offset="1" style="stop-color:#1A49BA"></stop>
	</linearGradient>
	<path class="st4" d="M266.4,344.6c0,0-37.7-38.8-47.1-15.7C219.2,328.9,211.7,344.5,266.4,344.6z"></path>
	
		<linearGradient id="SVGID_3_" gradientUnits="userSpaceOnUse" x1="-355.3367" y1="236.8817" x2="-306.5067" y2="236.8817" gradientTransform="matrix(-0.78 0.63 -0.63 -0.78 151.01 759.36)">
		<stop offset="0" style="stop-color:#0099FF"></stop>
		<stop offset="0.48" style="stop-color:#3757F5"></stop>
		<stop offset="0.76" style="stop-color:#264FD3"></stop>
		<stop offset="1" style="stop-color:#1A49BA"></stop>
	</linearGradient>
	<path class="st5" d="M293.6,367.7c0,0-58.8-32.6-61.8-1.8C231.9,366,228.5,387.3,293.6,367.7z"></path>
	
		<linearGradient id="SVGID_4_" gradientUnits="userSpaceOnUse" x1="-360.1067" y1="200.5703" x2="-303.3167" y2="200.5703" gradientTransform="matrix(-0.78 0.63 -0.63 -0.78 151.01 759.36)">
		<stop offset="0" style="stop-color:#0099FF"></stop>
		<stop offset="0.48" style="stop-color:#3757F5"></stop>
		<stop offset="0.76" style="stop-color:#264FD3"></stop>
		<stop offset="1" style="stop-color:#1A49BA"></stop>
	</linearGradient>
	<path class="st6" d="M320,392.9c0,0-67.2-28.5-66.9,5.1C253.1,398,251.9,421.5,320,392.9z"></path>
	
		<linearGradient id="SVGID_5_" gradientUnits="userSpaceOnUse" x1="-372.6867" y1="152.6789" x2="-316.5967" y2="152.6789" gradientTransform="matrix(-0.78 0.63 -0.63 -0.78 151.01 759.36)">
		<stop offset="0" style="stop-color:#0099FF"></stop>
		<stop offset="0.48" style="stop-color:#3757F5"></stop>
		<stop offset="0.76" style="stop-color:#264FD3"></stop>
		<stop offset="1" style="stop-color:#1A49BA"></stop>
	</linearGradient>
	<path class="st7" d="M363.9,427.4c0,0-68.3-44-74.3-7C289.6,420.3,283.8,445.8,363.9,427.4z"></path>
	
		<linearGradient id="SVGID_6_" gradientUnits="userSpaceOnUse" x1="-381.8767" y1="261.6851" x2="-352.1843" y2="261.6851" gradientTransform="matrix(-0.78 0.63 -0.63 -0.78 151.01 759.36)">
		<stop offset="0" style="stop-color:#0099FF"></stop>
		<stop offset="0.48" style="stop-color:#3757F5"></stop>
		<stop offset="0.76" style="stop-color:#264FD3"></stop>
		<stop offset="1" style="stop-color:#1A49BA"></stop>
	</linearGradient>
	<path class="st8" d="M275.1,349.8c0,0-29.8-45.1-5.3-49.4C269.9,300.4,286.8,296.3,275.1,349.8z"></path>
	
		<linearGradient id="SVGID_7_" gradientUnits="userSpaceOnUse" x1="-398.0167" y1="221.8738" x2="-355.5088" y2="221.8738" gradientTransform="matrix(-0.78 0.63 -0.63 -0.78 151.01 759.36)">
		<stop offset="0" style="stop-color:#0099FF"></stop>
		<stop offset="0.48" style="stop-color:#3757F5"></stop>
		<stop offset="0.76" style="stop-color:#264FD3"></stop>
		<stop offset="1" style="stop-color:#1A49BA"></stop>
	</linearGradient>
	<path class="st9" d="M304.9,381.5c0,0-29.5-60.5,1.4-61.8C306.3,319.7,327.8,317.5,304.9,381.5z"></path>
	
		<linearGradient id="SVGID_8_" gradientUnits="userSpaceOnUse" x1="-408.6667" y1="185.4209" x2="-366.0167" y2="185.4209" gradientTransform="matrix(-0.78 0.63 -0.63 -0.78 151.01 759.36)">
		<stop offset="0" style="stop-color:#0099FF"></stop>
		<stop offset="0.48" style="stop-color:#3757F5"></stop>
		<stop offset="0.76" style="stop-color:#264FD3"></stop>
		<stop offset="1" style="stop-color:#1A49BA"></stop>
	</linearGradient>
	<path class="st10" d="M338.2,406c0,0-37-63-3.6-67C334.5,339,357.7,334.8,338.2,406z"></path>
	
		<linearGradient id="SVGID_9_" gradientUnits="userSpaceOnUse" x1="-419.9267" y1="153.0269" x2="-372.6467" y2="153.0269" gradientTransform="matrix(-0.78 0.63 -0.63 -0.78 151.01 759.36)">
		<stop offset="0" style="stop-color:#0099FF"></stop>
		<stop offset="0.48" style="stop-color:#3757F5"></stop>
		<stop offset="0.76" style="stop-color:#264FD3"></stop>
		<stop offset="1" style="stop-color:#1A49BA"></stop>
	</linearGradient>
	<path class="st11" d="M362.8,426.1c0,0-34.9-63.3,2.1-66.9C364.9,359.1,390.6,355.2,362.8,426.1z"></path>
	
		<linearGradient id="SVGID_10_" gradientUnits="userSpaceOnUse" x1="234.6249" y1="494.1974" x2="371.1831" y2="494.1974" gradientTransform="matrix(1 0 0 -1 0 862)">
		<stop offset="0" style="stop-color:#F0F2FE"></stop>
		<stop offset="1" style="stop-color:#C8CDF0"></stop>
	</linearGradient>
	<path class="st12" d="M261.1,366.7c-0.9,0-1.6-0.8-1.5-1.7c0-0.9,0.8-1.6,1.7-1.5c0.8,0,16.6,0.8,26.3,2.2c-5-4.8-9.6-9.5-14-14.1   h-0.1c-0.2-0.1-17.3-12.5-35.7-16.8c-0.9-0.2-1.4-1.1-1.2-1.9s1.1-1.4,1.9-1.2l0,0c10.1,2.4,19.6,6.9,26.4,10.7   c-18.9-20.5-29.9-35.1-30.1-35.4c-0.5-0.7-0.4-1.7,0.3-2.2c0.7-0.5,1.7-0.4,2.2,0.3l0,0c0.3,0.4,13.1,17.5,35,40.7l-1.8-21.6   c-0.1-0.9,0.6-1.6,1.5-1.7s1.6,0.6,1.7,1.5l0,0l2.2,25.5c8,8.3,17,17.3,27,26.4c-1.6-10.4-0.3-26.7-0.2-27.6   c0.1-0.9,0.8-1.5,1.7-1.5c0.9,0.1,1.5,0.8,1.5,1.7l0,0c0,0.2-1.9,23,1.2,31.1c9,8.1,18.8,16.4,29.1,24.4   c-1.9-18.6-2.7-32.5-2.7-32.7c-0.1-0.9,0.6-1.6,1.5-1.7s1.6,0.6,1.7,1.5c0,0.1,0.9,15.1,2.9,34.6c0,0.3,0,0.5-0.1,0.8   c5.8,4.4,11.8,8.8,17.9,13c-3.5-11.5-1.6-30.9-1.3-33.8c0.1-0.9,0.9-1.5,1.8-1.4s1.5,0.9,1.4,1.8c-1.3,12-1.4,30.7,2.9,36.7   c1.1,0.7,2.2,1.5,3.3,2.2c0.5,0.1,0.9,0.4,1.2,0.8c1.2,0.8,2.4,1.6,3.6,2.3c0.7,0.5,1,1.4,0.5,2.2c-0.1,0.1-0.2,0.3-0.4,0.4   c-0.5,0.4-1.3,0.5-1.9,0.1c-1.3-0.8-2.6-1.7-3.9-2.5c-3.7,0.1-14-1.3-43.5-5.9c-0.9-0.1-1.5-0.9-1.3-1.8s0.9-1.5,1.8-1.3   c0,0,0,0,0.1,0c11.6,1.8,28.7,4.4,37.6,5.5c-12.8-8.6-25.2-17.9-37.1-27.8c-11.9-5.4-31.7-2-31.9-1.9c-0.9,0.2-1.7-0.4-1.8-1.3   s0.4-1.7,1.3-1.8c0.7-0.1,14.3-2.5,26.3-0.1c-3.8-3.2-7.5-6.4-11-9.7c-0.2-0.1-0.3-0.2-0.4-0.4c-4.5-4.1-8.8-8.1-13-12   C284,367.8,261.3,366.7,261.1,366.7z"></path>
	
		<linearGradient id="SVGID_11_" gradientUnits="userSpaceOnUse" x1="318.9235" y1="618.0837" x2="341.6804" y2="618.0837" gradientTransform="matrix(1 0 0 -1 0 862)">
		<stop offset="0" style="stop-color:#FDD2A7"></stop>
		<stop offset="1" style="stop-color:#F83F76"></stop>
	</linearGradient>
	<path class="st13" d="M334,273.2c0,0,21.7-60.5-7.8-58.5C326.2,214.7,305.5,214.8,334,273.2z"></path>
	
		<linearGradient id="SVGID_12_" gradientUnits="userSpaceOnUse" x1="303.8089" y1="583.4427" x2="335.89" y2="583.4427" gradientTransform="matrix(1 0 0 -1 0 862)">
		<stop offset="0" style="stop-color:#FDD2A7"></stop>
		<stop offset="1" style="stop-color:#F83F76"></stop>
	</linearGradient>
	<path class="st14" d="M335.9,299.6c0,0-8.7-53.4-29.6-39.9C306.3,259.7,291.1,268.2,335.9,299.6z"></path>
	
		<linearGradient id="SVGID_13_" gradientUnits="userSpaceOnUse" x1="293.869" y1="548.9672" x2="345" y2="548.9672" gradientTransform="matrix(1 0 0 -1 0 862)">
		<stop offset="0" style="stop-color:#FDD2A7"></stop>
		<stop offset="1" style="stop-color:#F83F76"></stop>
	</linearGradient>
	<path class="st15" d="M345,334.2c0,0-29.5-60.5-49.6-36.9C295.4,297.3,280.3,312.9,345,334.2z"></path>
	
		<linearGradient id="SVGID_14_" gradientUnits="userSpaceOnUse" x1="293.2155" y1="512.7288" x2="352.14" y2="512.7288" gradientTransform="matrix(1 0 0 -1 0 862)">
		<stop offset="0" style="stop-color:#FDD2A7"></stop>
		<stop offset="1" style="stop-color:#F83F76"></stop>
	</linearGradient>
	<path class="st16" d="M352.1,369.9c0,0-38.7-61.9-57.7-34.2C294.4,335.8,279.9,354.3,352.1,369.9z"></path>
	
		<linearGradient id="SVGID_15_" gradientUnits="userSpaceOnUse" x1="309.2749" y1="465.7622" x2="368.32" y2="465.7622" gradientTransform="matrix(1 0 0 -1 0 862)">
		<stop offset="0" style="stop-color:#FDD2A7"></stop>
		<stop offset="1" style="stop-color:#F83F76"></stop>
	</linearGradient>
	<path class="st17" d="M368.3,423.3c0,0-30.8-75.2-56.9-48.4C311.5,374.9,292.1,392.5,368.3,423.3z"></path>
	
		<linearGradient id="SVGID_16_" gradientUnits="userSpaceOnUse" x1="340.09" y1="575.5434" x2="367.3173" y2="575.5434" gradientTransform="matrix(1 0 0 -1 0 862)">
		<stop offset="0" style="stop-color:#FDD2A7"></stop>
		<stop offset="1" style="stop-color:#F83F76"></stop>
	</linearGradient>
	<path class="st18" d="M340.1,308.9c0,0,1.5-54,24-43.5C364.1,265.4,380.3,271.8,340.1,308.9z"></path>
	
		<linearGradient id="SVGID_17_" gradientUnits="userSpaceOnUse" x1="346.28" y1="536.3039" x2="385.9847" y2="536.3039" gradientTransform="matrix(1 0 0 -1 0 862)">
		<stop offset="0" style="stop-color:#FDD2A7"></stop>
		<stop offset="1" style="stop-color:#F83F76"></stop>
	</linearGradient>
	<path class="st19" d="M346.3,351.9c0,0,10.5-66.4,36.6-49.8C382.9,302.1,401.8,312.6,346.3,351.9z"></path>
	
		<linearGradient id="SVGID_18_" gradientUnits="userSpaceOnUse" x1="359.48" y1="500.5346" x2="398.8806" y2="500.5346" gradientTransform="matrix(1 0 0 -1 0 862)">
		<stop offset="0" style="stop-color:#FDD2A7"></stop>
		<stop offset="1" style="stop-color:#F83F76"></stop>
	</linearGradient>
	<path class="st20" d="M359.5,391.1c0,0,5.8-72.8,35.5-57C394.9,334.1,416.3,343.9,359.5,391.1z"></path>
	
		<linearGradient id="SVGID_19_" gradientUnits="userSpaceOnUse" x1="368.17" y1="468.6716" x2="412.4487" y2="468.6716" gradientTransform="matrix(1 0 0 -1 0 862)">
		<stop offset="0" style="stop-color:#FDD2A7"></stop>
		<stop offset="1" style="stop-color:#F83F76"></stop>
	</linearGradient>
	<path class="st21" d="M368.2,421.6c0,0,7.7-71.9,40.1-53.6C408.2,368,431.6,379.5,368.2,421.6z"></path>
	
		<linearGradient id="SVGID_20_" gradientUnits="userSpaceOnUse" x1="317.7437" y1="522.4616" x2="388.793" y2="522.4616" gradientTransform="matrix(1 0 0 -1 0 862)">
		<stop offset="0" style="stop-color:#F0F2FE"></stop>
		<stop offset="1" style="stop-color:#C8CDF0"></stop>
	</linearGradient>
	<path class="st22" d="M336.3,394.8c-0.7-0.6-0.7-1.6-0.2-2.2c0.6-0.7,1.6-0.7,2.2-0.2c0,0,0.1,0.1,0.1,0.1c8.5,8.1,21,20,27.6,26.1   c-5.7-14.8-10.5-29.6-14.5-44c-6.6-11.2-24.9-19.8-25-19.9c-0.8-0.4-1.1-1.3-0.8-2.1c0.4-0.8,1.3-1.1,2.1-0.8l0,0   c0.6,0.3,13.2,6.2,21.6,15c-1.2-4.8-2.4-9.6-3.5-14.2c-0.1-0.2-0.1-0.4-0.1-0.6c-1.4-5.9-2.6-11.7-3.7-17.3   c-5.3-5.9-23.2-19.8-23.4-20c-0.7-0.5-0.9-1.5-0.3-2.2s1.5-0.9,2.2-0.3c0,0,0.1,0,0.1,0.1c0.6,0.5,13.1,10.2,20.3,16.9   c-1.3-6.8-2.4-13.3-3.4-19.5c0,0,0,0,0-0.1c-0.1-0.2-7-20.1-19.6-34.2c-0.6-0.6-0.5-1.7,0.1-2.2c0.6-0.6,1.7-0.5,2.2,0.1   c0,0,0,0,0,0c6.9,7.7,12.1,16.9,15.5,24c-3.7-27.6-4.3-45.9-4.3-46.3c0-0.9,0.7-1.6,1.5-1.6c0.9,0,1.6,0.7,1.6,1.5   c0.9,17.9,2.6,35.7,5.4,53.4l10.9-18.7c0.4-0.8,1.4-1,2.2-0.6c0.8,0.4,1,1.4,0.6,2.2l0,0L341,309.2c1.8,11.4,4.1,23.9,7,37.2   c4.6-9.4,15.1-22.1,15.7-22.7c0.6-0.6,1.6-0.6,2.2,0c0.5,0.5,0.6,1.4,0.2,2c-0.1,0.2-14.7,17.8-16.9,26.1c2.8,11.9,6,24.2,9.9,36.7   c9.1-16.3,16.5-28.2,16.5-28.3c0.5-0.7,1.4-1,2.2-0.5s1,1.4,0.5,2.2c-0.1,0.1-7.9,12.9-17.5,30c-0.1,0.2-0.3,0.4-0.5,0.5   c2.2,6.9,4.6,13.9,7.2,20.9c3.7-11.4,16.4-26.3,18.3-28.5c0.5-0.7,1.5-0.8,2.2-0.3c0.7,0.5,0.8,1.5,0.3,2.2c0,0-0.1,0.1-0.1,0.1   c-8,9.1-18.7,24.4-18.7,31.8c0.5,1.2,1,2.5,1.5,3.7c0.2,0.4,0.4,0.8,0.5,1.2c0.6,1.4,1.1,2.8,1.7,4.1c0.3,0.8,0,1.7-0.8,2.1   c-0.2,0.1-0.4,0.1-0.5,0.1c-0.7,0-1.3-0.4-1.6-1c-0.6-1.5-1.2-2.9-1.8-4.3C365.5,422.5,357.8,415.5,336.3,394.8z"></path>
</g>
<g>
	
		<linearGradient id="SVGID_21_" gradientUnits="userSpaceOnUse" x1="383.3697" y1="237.5095" x2="488.1313" y2="426.4904" gradientTransform="matrix(1 0 0 -1 0 862)">
		<stop offset="0" style="stop-color:#B8BEE7"></stop>
		<stop offset="1" style="stop-color:#B8BEE7;stop-opacity:0"></stop>
	</linearGradient>
	<path class="st23" d="M206.8,517c0-2.9,1.9-5.8,5.7-7.9L399,401.4c7.6-4.4,19.9-4.4,27.6,0L659,535.1c3.8,2.2,5.7,5,5.7,7.9l0,0   l0,0l0,0c0,2.9-1.9,5.8-5.7,7.9L472.5,658.6c-7.6,4.4-19.9,4.4-27.5,0L212.5,525C208.7,522.8,206.8,519.9,206.8,517z"></path>
	<path class="st24" d="M407.1,635.7l-176-101.2c-1.2-0.7-2.2-0.4-2.3,0.7c0.2,1.4,1,2.6,2.2,3.2l176.1,101.2   c1.2,0.7,2.2,0.4,2.2-0.7C409.2,637.5,408.4,636.3,407.1,635.7z"></path>
	
		<linearGradient id="SVGID_22_" gradientUnits="userSpaceOnUse" x1="195.93" y1="276.27" x2="627.11" y2="276.27" gradientTransform="matrix(1 0 0 -1 0 862)">
		<stop offset="4.000000e-02" style="stop-color:#B8BEE7"></stop>
		<stop offset="0.5" style="stop-color:#DEE4F7"></stop>
	</linearGradient>
	<path class="st25" d="M195.9,509.6v1.3c0,6.3,3.3,12.1,8.8,15.2l226.1,130.5l0,0l5,2.9c2.7,1.6,5.7,2.4,8.8,2.4l0,0   c3.1,0,6.1-0.8,8.8-2.4l164.9-95.2c5.4-3.1,8.8-9,8.8-15.2L195.9,509.6z"></path>
	<linearGradient id="SVGID_23_" gradientUnits="userSpaceOnUse" x1="195.93" y1="585.73" x2="627.11" y2="585.73">
		<stop offset="8.453208e-02" style="stop-color:#96A0DE"></stop>
		<stop offset="1" style="stop-color:#96A0DE"></stop>
	</linearGradient>
	<path class="st26" d="M195.9,509.6v1.3c0,6.3,3.3,12.1,8.8,15.2l226.1,130.5l0,0l5,2.9c2.7,1.6,5.7,2.4,8.8,2.4l0,0   c3.1,0,6.1-0.8,8.8-2.4l164.9-95.2c5.4-3.1,8.8-9,8.8-15.2L195.9,509.6z"></path>
	
		<linearGradient id="SVGID_24_" gradientUnits="userSpaceOnUse" x1="195.9375" y1="333.9201" x2="627.15" y2="333.9201" gradientTransform="matrix(1 0 0 -1 0 862)">
		<stop offset="0" style="stop-color:#F0F2FE"></stop>
		<stop offset="1" style="stop-color:#C8CDF0"></stop>
	</linearGradient>
	<path class="st27" d="M450.9,650.9c-3.8,2.2-8.5,2.2-12.4,0L198.2,512.2c-3.1-1.8-3.1-4.6,0-6.4l176.9-102.1l252,145.5L450.9,650.9   z"></path>
	
		<linearGradient id="SVGID_25_" gradientUnits="userSpaceOnUse" x1="369.72" y1="377.8554" x2="604.8536" y2="377.8554" gradientTransform="matrix(1 0 0 -1 0 862)">
		<stop offset="8.453208e-02" style="stop-color:#96A0DE"></stop>
		<stop offset="0.2639" style="stop-color:#ABB4E6"></stop>
		<stop offset="0.5617" style="stop-color:#C9CFF2"></stop>
		<stop offset="0.8175" style="stop-color:#DBDFF9"></stop>
		<stop offset="1" style="stop-color:#E2E5FB"></stop>
	</linearGradient>
	<path class="st28" d="M597.9,551.6l6.2-3.6c0.6-0.2,0.9-0.8,0.7-1.4c-0.1-0.3-0.4-0.6-0.7-0.7L380.4,416.7c-1.2-0.6-2.5-0.6-3.7,0   l-6.2,3.6c-1,0.6-1,1.6,0,2.1l223.7,129.2C595.3,552.2,596.7,552.2,597.9,551.6z"></path>
	<linearGradient id="SVGID_26_" gradientUnits="userSpaceOnUse" x1="296.95" y1="559.14" x2="418.6" y2="559.14">
		<stop offset="8.453208e-02" style="stop-color:#96A0DE"></stop>
		<stop offset="1" style="stop-color:#96A0DE"></stop>
	</linearGradient>
	<polygon class="st29" points="297,549.1 298.1,549.8 375.1,594.3 417.4,569.9 418.6,569.2 340.4,524  "></polygon>
	<linearGradient id="SVGID_27_" gradientUnits="userSpaceOnUse" x1="296.9626" y1="559.136" x2="418.6125" y2="559.136">
		<stop offset="8.453208e-02" style="stop-color:#96A0DE"></stop>
		<stop offset="0.2693" style="stop-color:#9CA5E0"></stop>
		<stop offset="0.5098" style="stop-color:#ACB4E6"></stop>
		<stop offset="0.7799" style="stop-color:#C7CCF1"></stop>
		<stop offset="1" style="stop-color:#E2E5FB"></stop>
	</linearGradient>
	<polygon class="st30" points="297,549.1 298.1,549.8 375.2,594.3 417.4,569.9 418.6,569.2 340.4,524  "></polygon>
	
		<linearGradient id="SVGID_28_" gradientUnits="userSpaceOnUse" x1="298.13" y1="302.165" x2="417.4" y2="302.165" gradientTransform="matrix(1 0 0 -1 0 862)">
		<stop offset="4.000000e-02" style="stop-color:#B8BEE7"></stop>
		<stop offset="0.5" style="stop-color:#DEE4F7"></stop>
	</linearGradient>
	<polygon class="st31" points="298.1,549.8 375.1,594.3 417.4,569.9 340.4,525.4  "></polygon>
	<linearGradient id="SVGID_29_" gradientUnits="userSpaceOnUse" x1="298.12" y1="559.8049" x2="378.12" y2="559.8049">
		<stop offset="8.453208e-02" style="stop-color:#96A0DE"></stop>
		<stop offset="0.2693" style="stop-color:#9CA5E0"></stop>
		<stop offset="0.5098" style="stop-color:#ACB4E6"></stop>
		<stop offset="0.7799" style="stop-color:#C7CCF1"></stop>
		<stop offset="1" style="stop-color:#E2E5FB"></stop>
	</linearGradient>
	<path class="st32" d="M346.6,529c-10.9,6-15.5,35.8,31.5,63.5l-3,1.7l-77-44.5l42.2-24.4L346.6,529z"></path>
	
		<linearGradient id="SVGID_30_" gradientUnits="userSpaceOnUse" x1="281.2759" y1="346.3117" x2="587.5209" y2="346.3117" gradientTransform="matrix(1 0 0 -1 0 862)">
		<stop offset="4.000000e-02" style="stop-color:#B8BEE7"></stop>
		<stop offset="0.5" style="stop-color:#DEE4F7"></stop>
	</linearGradient>
	<path class="st33" d="M282,475.5L282,475.5l222.1,128.1c1.2,0.6,2.6,0.6,3.7,0l78.8-45.5h0.1c0.6-0.2,0.9-0.8,0.7-1.4   c-0.1-0.3-0.4-0.6-0.7-0.7l-222-128.2c-1.2-0.6-2.5-0.6-3.7,0l-79,45.7c-0.6,0.2-0.9,0.9-0.7,1.4   C281.5,475.2,281.7,475.4,282,475.5z"></path>
	
		<linearGradient id="SVGID_31_" gradientUnits="userSpaceOnUse" x1="586.58" y1="305.995" x2="586.89" y2="305.995" gradientTransform="matrix(1 0 0 -1 0 862)">
		<stop offset="4.000000e-02" style="stop-color:#B8BEE7"></stop>
		<stop offset="0.5" style="stop-color:#DEE4F7"></stop>
	</linearGradient>
	<path class="st34" d="M586.7,556l-0.2-0.1l0.3,0.2L586.7,556z"></path>
	<linearGradient id="SVGID_32_" gradientUnits="userSpaceOnUse" x1="282.08" y1="516.7733" x2="586.66" y2="516.7733">
		<stop offset="8.453208e-02" style="stop-color:#96A0DE"></stop>
		<stop offset="0.2693" style="stop-color:#9CA5E0"></stop>
		<stop offset="0.5098" style="stop-color:#ACB4E6"></stop>
		<stop offset="0.7799" style="stop-color:#C7CCF1"></stop>
		<stop offset="1" style="stop-color:#E2E5FB"></stop>
	</linearGradient>
	<path class="st35" d="M282.1,475.6l222.1,128.1c1.2,0.6,2.6,0.6,3.7,0l78.8-45.5L364.7,429.9c-1.2-0.6-2.5-0.6-3.7,0L282.1,475.6z"></path>
	
		<linearGradient id="SVGID_33_" gradientUnits="userSpaceOnUse" x1="375.15" y1="488.6165" x2="635.84" y2="488.6165" gradientTransform="matrix(1 0 0 -1 0 862)">
		<stop offset="4.000000e-02" style="stop-color:#B8BEE7"></stop>
		<stop offset="0.5" style="stop-color:#DEE4F7"></stop>
	</linearGradient>
	<path class="st36" d="M635.7,345.9c-0.1-0.5-0.2-1-0.3-1.5c0-0.2-0.1-0.5-0.2-0.7c-0.2-0.7-0.4-1.3-0.7-2c0,0,0,0,0-0.1   c-0.8-2-2-3.9-3.5-5.5l-0.1-0.1c-0.5-0.5-1-1-1.6-1.5c-0.1,0-0.1-0.1-0.2-0.2c-0.5-0.4-1.1-0.8-1.6-1.1l0,0l-0.4-0.2l-5-2.9   l-0.8-0.5l0,0L396.6,200c-5.4-3.1-12-3.1-17.4,0l-2.1,1l-1.9,4.4v198.2l252,145.5c5.4-3.1,7.1-5.4,8.7-15V348.1   C635.8,347.4,635.8,346.6,635.7,345.9z"></path>
	<linearGradient id="SVGID_34_" gradientUnits="userSpaceOnUse" x1="375.15" y1="373.3835" x2="635.84" y2="373.3835">
		<stop offset="8.453208e-02" style="stop-color:#96A0DE"></stop>
		<stop offset="1" style="stop-color:#96A0DE"></stop>
	</linearGradient>
	<path class="st37" d="M635.7,345.9c-0.1-0.5-0.2-1-0.3-1.5c0-0.2-0.1-0.5-0.2-0.7c-0.2-0.7-0.4-1.3-0.7-2c0,0,0,0,0-0.1   c-0.8-2-2-3.9-3.5-5.5l-0.1-0.1c-0.5-0.5-1-1-1.6-1.5c-0.1,0-0.1-0.1-0.2-0.2c-0.5-0.4-1.1-0.8-1.6-1.1l0,0l-0.4-0.2l-5-2.9   l-0.8-0.5l0,0L396.6,200c-5.4-3.1-12-3.1-17.4,0l-2.1,1l-1.9,4.4v198.2l252,145.5c5.4-3.1,7.1-5.4,8.7-15V348.1   C635.8,347.4,635.8,346.6,635.7,345.9z"></path>
	<path class="st38" d="M381,201l242,139.7c2.6,1.5,4.2,4.3,4.2,7.3v201.1l-252-145.5V204.4c0-2.1,1.8-3.9,3.9-3.9   C379.8,200.5,380.4,200.7,381,201z"></path>
	
		<linearGradient id="SVGID_35_" gradientUnits="userSpaceOnUse" x1="569.0093" y1="566.7689" x2="435.5666" y2="407.7356" gradientTransform="matrix(1 0 0 -1 0 862)">
		<stop offset="0" style="stop-color:#F0F2FE"></stop>
		<stop offset="1" style="stop-color:#C8CDF0"></stop>
	</linearGradient>
	<path class="st39" d="M381,201l242,139.7c2.6,1.5,4.2,4.3,4.2,7.3v201.1l-252-145.5V204.4c0-2.1,1.8-3.9,3.9-3.9   C379.8,200.5,380.4,200.7,381,201z"></path>
	<linearGradient id="SVGID_36_" gradientUnits="userSpaceOnUse" x1="375.15" y1="472.765" x2="627.14" y2="472.765">
		<stop offset="8.453208e-02" style="stop-color:#96A0DE"></stop>
		<stop offset="1" style="stop-color:#96A0DE"></stop>
	</linearGradient>
	<polygon class="st40" points="627.1,549.1 627.1,541.9 375.1,396.4 375.1,403.6  "></polygon>
	<linearGradient id="SVGID_37_" gradientUnits="userSpaceOnUse" x1="381.72" y1="302.22" x2="384.75" y2="302.22">
		<stop offset="8.453208e-02" style="stop-color:#96A0DE"></stop>
		<stop offset="1" style="stop-color:#96A0DE"></stop>
	</linearGradient>
	<polygon class="st41" points="381.7,393 381.7,211.4 384.8,213.1 384.8,391.5  "></polygon>
	
		<linearGradient id="SVGID_38_" gradientUnits="userSpaceOnUse" x1="384.75" y1="492.21" x2="619.04" y2="492.21" gradientTransform="matrix(1 0 0 -1 0 862)">
		<stop offset="4.000000e-02" style="stop-color:#B8BEE7"></stop>
		<stop offset="0.5" style="stop-color:#DEE4F7"></stop>
	</linearGradient>
	<polygon class="st42" points="384.8,213.1 384.8,391.5 619,526.4 619,348.4  "></polygon>
	
		<linearGradient id="SVGID_39_" gradientUnits="userSpaceOnUse" x1="381.72" y1="401.23" x2="619.04" y2="401.23" gradientTransform="matrix(1 0 0 -1 0 862)">
		<stop offset="0" style="stop-color:#C8CDF0"></stop>
		<stop offset="1" style="stop-color:#EEF0FD"></stop>
	</linearGradient>
	<polygon class="st43" points="381.7,393 619,530 619,526.4 384.8,391.5  "></polygon>
	<linearGradient id="SVGID_40_" gradientUnits="userSpaceOnUse" x1="384.76" y1="369.79" x2="619.04" y2="369.79">
		<stop offset="8.453208e-02" style="stop-color:#96A0DE"></stop>
		<stop offset="0.2693" style="stop-color:#9CA5E0"></stop>
		<stop offset="0.5098" style="stop-color:#ACB4E6"></stop>
		<stop offset="0.7799" style="stop-color:#C7CCF1"></stop>
		<stop offset="1" style="stop-color:#E2E5FB"></stop>
	</linearGradient>
	<path class="st44" d="M384.8,213.1l33.1,19.1c1.2,54.8,16.7,171.9,201.2,281.9v12.3L384.8,391.5V213.1z"></path>
</g>
<g>
	<polygon class="st45" points="364.7,177.2 364.6,200 364.2,348.8 599.7,484.7 600.1,335.9 600.2,313.2  "></polygon>
	
		<linearGradient id="SVGID_41_" gradientUnits="userSpaceOnUse" x1="356.03" y1="607.99" x2="596.07" y2="607.99" gradientTransform="matrix(1 0 0 -1 0 862)">
		<stop offset="0" style="stop-color:#0099FF"></stop>
		<stop offset="0.48" style="stop-color:#3757F5"></stop>
		<stop offset="0.76" style="stop-color:#264FD3"></stop>
		<stop offset="1" style="stop-color:#1A49BA"></stop>
	</linearGradient>
	<polygon class="st46" points="356.1,173.1 356,196.3 596,334.9 596.1,311.7  "></polygon>
	
		<linearGradient id="SVGID_42_" gradientUnits="userSpaceOnUse" x1="-852.83" y1="520.58" x2="-612.43" y2="520.58" gradientTransform="matrix(-1 0 0 -1 -256.83 862)">
		<stop offset="0" style="stop-color:#0099FF"></stop>
		<stop offset="0.48" style="stop-color:#3757F5"></stop>
		<stop offset="0.76" style="stop-color:#264FD3"></stop>
		<stop offset="1" style="stop-color:#1A49BA"></stop>
	</linearGradient>
	<polygon class="st47" points="595.6,486.5 596,334.9 356,196.3 355.6,348  "></polygon>
	
		<linearGradient id="SVGID_43_" gradientUnits="userSpaceOnUse" x1="-1268.356" y1="541.9578" x2="-1260.006" y2="551.5778" gradientTransform="matrix(-1 0 0 -1 -685.07 862)">
		<stop offset="0" style="stop-color:#FDD2A7"></stop>
		<stop offset="1" style="stop-color:#F83F76"></stop>
	</linearGradient>
	<path class="st48" d="M575.7,310.8c1.1-0.5,2.3-0.4,3.3,0.3c2.7,1.8,4.4,4.7,4.6,8c0.1,1.2-0.4,2.3-1.4,3l-0.8,0.5   c1-0.7,1.5-1.8,1.3-3c-0.2-3.3-1.9-6.2-4.6-8c-1-0.7-2.2-0.8-3.3-0.3L575.7,310.8z"></path>
	
		<linearGradient id="SVGID_44_" gradientUnits="userSpaceOnUse" x1="-1260.0367" y1="555.189" x2="-1262.9368" y2="546.059" gradientTransform="matrix(-1 0 0 -1 -685.07 862)">
		<stop offset="0" style="stop-color:#FDD2A7"></stop>
		<stop offset="1" style="stop-color:#F83F76"></stop>
	</linearGradient>
	<path class="st49" d="M578.2,311.5c-2.6-1.5-4.7-0.3-4.7,2.7c0.2,3.3,1.9,6.2,4.6,8c2.6,1.5,4.7,0.3,4.7-2.6   C582.6,316.3,580.9,313.3,578.2,311.5z"></path>
	
		<linearGradient id="SVGID_45_" gradientUnits="userSpaceOnUse" x1="-1252.9679" y1="550.7695" x2="-1244.6179" y2="560.3895" gradientTransform="matrix(-1 0 0 -1 -685.07 862)">
		<stop offset="0.25" style="stop-color:#FFFFFF"></stop>
		<stop offset="0.7" style="stop-color:#DEE4F7"></stop>
		<stop offset="0.98" style="stop-color:#F4F6FC"></stop>
	</linearGradient>
	<path class="st50" d="M560.3,301.9c1.1-0.5,2.3-0.4,3.3,0.3c2.7,1.8,4.5,4.7,4.6,8c0.1,1.2-0.4,2.3-1.3,3l-0.8,0.5   c1-0.7,1.5-1.8,1.4-3c-0.2-3.3-1.9-6.2-4.6-8c-1-0.7-2.2-0.8-3.3-0.3L560.3,301.9z"></path>
	
		<linearGradient id="SVGID_46_" gradientUnits="userSpaceOnUse" x1="558.13" y1="553.9428" x2="567.42" y2="553.9428" gradientTransform="matrix(1 0 0 -1 0 862)">
		<stop offset="0.25" style="stop-color:#FFFFFF"></stop>
		<stop offset="0.7" style="stop-color:#DEE4F7"></stop>
	</linearGradient>
	<path class="st51" d="M562.8,302.7c-2.6-1.5-4.7-0.3-4.7,2.6c0.2,3.3,1.9,6.2,4.6,8c2.6,1.5,4.7,0.3,4.7-2.6   C567.2,307.5,565.5,304.5,562.8,302.7z"></path>
	
		<linearGradient id="SVGID_47_" gradientUnits="userSpaceOnUse" x1="-1237.5565" y1="559.741" x2="-1229.2065" y2="569.361" gradientTransform="matrix(-1 0 0 -1 -685.07 862)">
		<stop offset="0.25" style="stop-color:#FFFFFF"></stop>
		<stop offset="0.7" style="stop-color:#DEE4F7"></stop>
		<stop offset="0.98" style="stop-color:#F4F6FC"></stop>
	</linearGradient>
	<path class="st52" d="M544.9,293c1.1-0.5,2.3-0.4,3.3,0.3c2.7,1.8,4.4,4.7,4.6,8c0.1,1.2-0.4,2.3-1.4,3l-0.8,0.5   c1-0.7,1.5-1.8,1.3-3c-0.2-3.3-1.9-6.2-4.6-8c-1-0.7-2.2-0.8-3.3-0.3L544.9,293z"></path>
	
		<linearGradient id="SVGID_48_" gradientUnits="userSpaceOnUse" x1="542.75" y1="562.9328" x2="552.03" y2="562.9328" gradientTransform="matrix(1 0 0 -1 0 862)">
		<stop offset="0.25" style="stop-color:#FFFFFF"></stop>
		<stop offset="0.7" style="stop-color:#DEE4F7"></stop>
	</linearGradient>
	<path class="st53" d="M547.4,293.7c-2.6-1.5-4.7-0.3-4.7,2.6c0.2,3.3,1.9,6.2,4.6,8c2.6,1.5,4.6,0.3,4.7-2.6   C551.9,298.5,550.1,295.5,547.4,293.7z"></path>
	
		<linearGradient id="SVGID_49_" gradientUnits="userSpaceOnUse" x1="356.1" y1="620.475" x2="600.19" y2="620.475" gradientTransform="matrix(1 0 0 -1 0 862)">
		<stop offset="0" style="stop-color:#1A49BA"></stop>
		<stop offset="1" style="stop-color:#0099FF"></stop>
	</linearGradient>
	<polygon class="st54" points="356.1,173.1 360.4,171.4 600.2,309.9 596.1,311.7  "></polygon>
	
		<linearGradient id="SVGID_50_" gradientUnits="userSpaceOnUse" x1="599.8907" y1="540.38" x2="595.6508" y2="378.06" gradientTransform="matrix(1 0 0 -1 0 862)">
		<stop offset="0" style="stop-color:#1A49BA"></stop>
		<stop offset="0.16" style="stop-color:#1164D1"></stop>
		<stop offset="0.33" style="stop-color:#0A7BE5"></stop>
		<stop offset="0.52" style="stop-color:#048CF4"></stop>
		<stop offset="0.73" style="stop-color:#0196FC"></stop>
		<stop offset="1" style="stop-color:#0099FF"></stop>
	</linearGradient>
	<polygon class="st55" points="595.6,486.5 599.7,484.7 600.2,309.9 596.1,311.7  "></polygon>
	<g>
		<defs>
			<path id="SVGID_51_" d="M571.7,366.3l-24.5-14.1v24.6l24.5,14.2c5.1,2.9,9.2-0.2,9.2-7S576.8,369.3,571.7,366.3z"></path>
		</defs>
		<clipPath id="SVGID_52_">
			<use xlink:href="#SVGID_51_" style="overflow:visible;"></use>
		</clipPath>
		<g class="st56">
			<polygon class="st57" points="547.4,352.3 547.4,377 547.2,376.8 547.2,352.2    "></polygon>
			<polygon class="st58" points="547.7,352.5 547.7,377.1 547.4,377 547.4,352.3    "></polygon>
			<polygon class="st59" points="547.9,352.6 547.9,377.2 547.7,377.1 547.7,352.5    "></polygon>
			<polygon class="st60" points="548.1,352.7 548.1,377.4 547.9,377.2 547.9,352.6    "></polygon>
			<polygon class="st61" points="548.3,352.9 548.3,377.5 548.1,377.4 548.1,352.7    "></polygon>
			<polygon class="st62" points="548.6,353 548.6,377.6 548.3,377.5 548.3,352.9    "></polygon>
			<polygon class="st63" points="548.8,353.1 548.8,377.8 548.6,377.6 548.6,353    "></polygon>
			<polygon class="st64" points="549,353.3 549,377.9 548.8,377.8 548.8,353.1    "></polygon>
			<polygon class="st65" points="549.3,353.4 549.3,378 549,377.9 549,353.3    "></polygon>
			<polygon class="st66" points="549.5,353.5 549.5,378.1 549.3,378 549.3,353.4    "></polygon>
			<polygon class="st67" points="549.7,353.7 549.7,378.3 549.5,378.1 549.5,353.5    "></polygon>
			<polygon class="st68" points="550,353.8 550,378.4 549.7,378.3 549.7,353.7    "></polygon>
			<polygon class="st69" points="550.2,353.9 550.2,378.5 550,378.4 550,353.8    "></polygon>
			<polygon class="st70" points="550.4,354 550.4,378.7 550.2,378.5 550.2,353.9    "></polygon>
			<polygon class="st71" points="550.6,354.2 550.6,378.8 550.4,378.7 550.4,354    "></polygon>
			<polygon class="st72" points="550.9,354.3 550.9,378.9 550.6,378.8 550.6,354.2    "></polygon>
			<polygon class="st73" points="551.1,354.5 551.1,379.1 550.9,378.9 550.9,354.3    "></polygon>
			<polygon class="st74" points="551.3,354.6 551.3,379.2 551.1,379.1 551.1,354.5    "></polygon>
			<polygon class="st75" points="551.6,354.7 551.6,379.3 551.3,379.2 551.3,354.6    "></polygon>
			<polygon class="st76" points="551.8,354.9 551.8,379.5 551.6,379.3 551.6,354.7    "></polygon>
			<polygon class="st77" points="552,355 552,379.6 551.8,379.5 551.8,354.9    "></polygon>
			<polygon class="st78" points="552.2,355.1 552.2,379.7 552,379.6 552,355    "></polygon>
			<polygon class="st79" points="552.5,355.2 552.5,379.9 552.2,379.7 552.2,355.1    "></polygon>
			<polygon class="st80" points="552.7,355.4 552.7,380 552.5,379.9 552.5,355.2    "></polygon>
			<polygon class="st81" points="552.9,355.5 552.9,380.1 552.7,380 552.7,355.4    "></polygon>
			<polygon class="st82" points="553.2,355.6 553.2,380.3 552.9,380.1 552.9,355.5    "></polygon>
			<polygon class="st83" points="553.4,355.8 553.4,380.4 553.2,380.3 553.2,355.6    "></polygon>
			<polygon class="st84" points="553.6,355.9 553.6,380.5 553.4,380.4 553.4,355.8    "></polygon>
			<polygon class="st85" points="553.9,356 553.9,380.7 553.6,380.5 553.6,355.9    "></polygon>
			<polygon class="st86" points="554.1,356.2 554.1,380.8 553.9,380.7 553.9,356    "></polygon>
			<polygon class="st87" points="554.3,356.3 554.3,380.9 554.1,380.8 554.1,356.2    "></polygon>
			<polygon class="st88" points="554.5,356.4 554.5,381.1 554.3,380.9 554.3,356.3    "></polygon>
			<polygon class="st89" points="554.8,356.6 554.8,381.2 554.5,381.1 554.5,356.4    "></polygon>
			<polygon class="st90" points="555,356.7 555,381.3 554.8,381.2 554.8,356.6    "></polygon>
			<polygon class="st91" points="555.2,356.8 555.2,381.5 555,381.3 555,356.7    "></polygon>
			<polygon class="st92" points="555.5,357 555.5,381.6 555.2,381.5 555.2,356.8    "></polygon>
			<polygon class="st93" points="555.7,357.1 555.7,381.7 555.5,381.6 555.5,357    "></polygon>
			<polygon class="st94" points="555.9,357.2 555.9,381.9 555.7,381.7 555.7,357.1    "></polygon>
			<polygon class="st95" points="556.2,357.4 556.2,382 555.9,381.9 555.9,357.2    "></polygon>
			<polygon class="st96" points="556.4,357.5 556.4,382.1 556.2,382 556.2,357.4    "></polygon>
			<polygon class="st97" points="556.6,357.6 556.6,382.2 556.4,382.1 556.4,357.5    "></polygon>
			<polygon class="st98" points="556.8,357.8 556.8,382.4 556.6,382.2 556.6,357.6    "></polygon>
			<polygon class="st99" points="557.1,357.9 557.1,382.5 556.8,382.4 556.8,357.8    "></polygon>
			<polygon class="st100" points="557.3,358 557.3,382.6 557.1,382.5 557.1,357.9    "></polygon>
			<polygon class="st101" points="557.5,358.2 557.5,382.8 557.3,382.6 557.3,358    "></polygon>
			<polygon class="st102" points="557.8,358.3 557.8,382.9 557.5,382.8 557.5,358.2    "></polygon>
			<polygon class="st103" points="558,358.4 558,383 557.8,382.9 557.8,358.3    "></polygon>
			<polygon class="st104" points="558.2,358.6 558.2,383.2 558,383 558,358.4    "></polygon>
			<polygon class="st105" points="558.4,358.7 558.4,383.3 558.2,383.2 558.2,358.6    "></polygon>
			<polygon class="st106" points="558.7,358.8 558.7,383.5 558.4,383.3 558.4,358.7    "></polygon>
			<polygon class="st107" points="558.9,359 558.9,383.6 558.7,383.5 558.7,358.8    "></polygon>
			<polygon class="st108" points="559.1,359.1 559.1,383.7 558.9,383.6 558.9,359    "></polygon>
			<polygon class="st109" points="559.4,359.2 559.4,383.8 559.1,383.7 559.1,359.1    "></polygon>
			<polygon class="st110" points="559.6,359.4 559.6,384 559.4,383.8 559.4,359.2    "></polygon>
			<polygon class="st111" points="559.8,359.5 559.8,384.1 559.6,384 559.6,359.4    "></polygon>
			<polygon class="st112" points="560,359.6 560,384.2 559.8,384.1 559.8,359.5    "></polygon>
			<polygon class="st113" points="560.3,359.8 560.3,384.4 560,384.2 560,359.6    "></polygon>
			<polygon class="st114" points="560.5,359.9 560.5,384.5 560.3,384.4 560.3,359.8    "></polygon>
			<polygon class="st115" points="560.7,360 560.7,384.6 560.5,384.5 560.5,359.9    "></polygon>
			<polygon class="st116" points="561,360.1 561,384.8 560.7,384.6 560.7,360    "></polygon>
			<polygon class="st117" points="561.2,360.3 561.2,384.9 561,384.8 561,360.1    "></polygon>
			<polygon class="st118" points="561.4,360.4 561.4,385 561.2,384.9 561.2,360.3    "></polygon>
			<polygon class="st119" points="561.7,360.5 561.7,385.2 561.4,385 561.4,360.4    "></polygon>
			<polygon class="st120" points="561.9,360.7 561.9,385.3 561.7,385.2 561.7,360.5    "></polygon>
			<polygon class="st121" points="562.1,360.8 562.1,385.4 561.9,385.3 561.9,360.7    "></polygon>
			<polygon class="st122" points="562.3,360.9 562.3,385.6 562.1,385.4 562.1,360.8    "></polygon>
			<polygon class="st123" points="562.6,361.1 562.6,385.7 562.3,385.6 562.3,360.9    "></polygon>
			<polygon class="st124" points="562.8,361.2 562.8,385.8 562.6,385.7 562.6,361.1    "></polygon>
			<polygon class="st125" points="563,361.3 563,386 562.8,385.8 562.8,361.2    "></polygon>
			<polygon class="st126" points="563.3,361.5 563.3,386.1 563,386 563,361.3    "></polygon>
			<polygon class="st127" points="563.5,361.6 563.5,386.2 563.3,386.1 563.3,361.5    "></polygon>
			<polygon class="st128" points="563.7,361.7 563.7,386.4 563.5,386.2 563.5,361.6    "></polygon>
			<polygon class="st129" points="564,361.9 564,386.5 563.7,386.4 563.7,361.7    "></polygon>
			<polygon class="st130" points="564.2,362 564.2,386.6 564,386.5 564,361.9    "></polygon>
			<polygon class="st131" points="564.4,362.1 564.4,386.8 564.2,386.6 564.2,362    "></polygon>
			<polygon class="st132" points="564.6,362.3 564.6,386.9 564.4,386.8 564.4,362.1    "></polygon>
			<polygon class="st133" points="564.9,362.4 564.9,387 564.6,386.9 564.6,362.3    "></polygon>
			<polygon class="st134" points="565.1,362.5 565.1,387.1 564.9,387 564.9,362.4    "></polygon>
			<polygon class="st135" points="565.3,362.7 565.3,387.3 565.1,387.1 565.1,362.5    "></polygon>
			<polygon class="st136" points="565.5,362.8 565.5,387.4 565.3,387.3 565.3,362.7    "></polygon>
			<polygon class="st137" points="565.8,362.9 565.8,387.5 565.5,387.4 565.5,362.8    "></polygon>
			<polygon class="st138" points="566,363.1 566,387.7 565.8,387.5 565.8,362.9    "></polygon>
			<polygon class="st139" points="566.2,363.2 566.2,387.8 566,387.7 566,363.1    "></polygon>
			<polygon class="st140" points="566.5,363.3 566.5,388 566.2,387.8 566.2,363.2    "></polygon>
			<polygon class="st141" points="566.7,363.5 566.7,388.1 566.5,388 566.5,363.3    "></polygon>
			<polygon class="st142" points="566.9,363.6 566.9,388.2 566.7,388.1 566.7,363.5    "></polygon>
			<polygon class="st143" points="567.2,363.7 567.2,388.4 566.9,388.2 566.9,363.6    "></polygon>
			<polygon class="st144" points="567.4,363.9 567.4,388.5 567.2,388.4 567.2,363.7    "></polygon>
			<polygon class="st145" points="567.6,364 567.6,388.6 567.4,388.5 567.4,363.9    "></polygon>
			<polygon class="st146" points="567.8,364.1 567.8,388.7 567.6,388.6 567.6,364    "></polygon>
			<polygon class="st147" points="568.1,364.2 568.1,388.9 567.8,388.7 567.8,364.1    "></polygon>
			<polygon class="st148" points="568.3,364.4 568.3,389 568.1,388.9 568.1,364.2    "></polygon>
			<polygon class="st149" points="568.5,364.5 568.5,389.1 568.3,389 568.3,364.4    "></polygon>
			<polygon class="st150" points="568.8,364.6 568.8,389.3 568.5,389.1 568.5,364.5    "></polygon>
			<polygon class="st151" points="569,364.8 569,389.4 568.8,389.3 568.8,364.6    "></polygon>
			<polygon class="st152" points="569.2,364.9 569.2,389.5 569,389.4 569,364.8    "></polygon>
			<polygon class="st153" points="569.5,365 569.5,389.7 569.2,389.5 569.2,364.9    "></polygon>
			<polygon class="st154" points="569.7,365.2 569.7,389.8 569.5,389.7 569.5,365    "></polygon>
			<polygon class="st155" points="569.9,365.3 569.9,389.9 569.7,389.8 569.7,365.2    "></polygon>
			<polygon class="st156" points="570.1,365.4 570.1,390.1 569.9,389.9 569.9,365.3    "></polygon>
			<polygon class="st157" points="570.4,365.6 570.4,390.2 570.1,390.1 570.1,365.4    "></polygon>
			<polygon class="st158" points="570.6,365.7 570.6,390.3 570.4,390.2 570.4,365.6    "></polygon>
			<polygon class="st159" points="570.8,365.8 570.8,390.5 570.6,390.3 570.6,365.7    "></polygon>
			<polygon class="st160" points="571,366 571,390.6 570.8,390.5 570.8,365.8    "></polygon>
			<polygon class="st161" points="571.3,366.1 571.3,390.7 571,390.6 571,366    "></polygon>
			<polygon class="st162" points="571.5,366.2 571.5,390.9 571.3,390.7 571.3,366.1    "></polygon>
			<polygon class="st163" points="571.7,366.4 571.7,391 571.5,390.9 571.5,366.2    "></polygon>
			<polygon class="st164" points="572,366.5 572,391.1 571.7,391 571.7,366.4    "></polygon>
			<polygon class="st165" points="572.2,366.6 572.2,391.3 572,391.1 572,366.5    "></polygon>
			<polygon class="st166" points="572.4,366.8 572.4,391.4 572.2,391.3 572.2,366.6    "></polygon>
			<polygon class="st167" points="572.7,366.9 572.7,391.5 572.4,391.4 572.4,366.8    "></polygon>
			<polygon class="st168" points="572.9,367 572.9,391.6 572.7,391.5 572.7,366.9    "></polygon>
			<polygon class="st169" points="573.1,367.2 573.1,391.8 572.9,391.6 572.9,367    "></polygon>
			<polygon class="st170" points="573.3,367.3 573.3,391.9 573.1,391.8 573.1,367.2    "></polygon>
			<polygon class="st171" points="573.6,367.4 573.6,392 573.3,391.9 573.3,367.3    "></polygon>
			<polygon class="st172" points="573.8,367.6 573.8,392.2 573.6,392 573.6,367.4    "></polygon>
			<polygon class="st173" points="574,367.7 574,392.3 573.8,392.2 573.8,367.6    "></polygon>
			<polygon class="st174" points="574.3,367.8 574.3,392.5 574,392.3 574,367.7    "></polygon>
			<polygon class="st175" points="574.5,368 574.5,392.6 574.3,392.5 574.3,367.8    "></polygon>
			<polygon class="st176" points="574.7,368.1 574.7,392.7 574.5,392.6 574.5,368    "></polygon>
			<polygon class="st177" points="575,368.2 575,392.9 574.7,392.7 574.7,368.1    "></polygon>
			<polygon class="st178" points="575.2,368.4 575.2,393 575,392.9 575,368.2    "></polygon>
			<polygon class="st179" points="575.4,368.5 575.4,393.1 575.2,393 575.2,368.4    "></polygon>
			<polygon class="st180" points="575.6,368.6 575.6,393.2 575.4,393.1 575.4,368.5    "></polygon>
			<polygon class="st181" points="575.9,368.8 575.9,393.4 575.6,393.2 575.6,368.6    "></polygon>
			<polygon class="st182" points="576.1,368.9 576.1,393.5 575.9,393.4 575.9,368.8    "></polygon>
			<polygon class="st183" points="576.3,369 576.3,393.6 576.1,393.5 576.1,368.9    "></polygon>
			<polygon class="st184" points="576.6,369.1 576.6,393.8 576.3,393.6 576.3,369    "></polygon>
			<polygon class="st185" points="576.8,369.3 576.8,393.9 576.6,393.8 576.6,369.1    "></polygon>
			<polygon class="st186" points="577,369.4 577,394 576.8,393.9 576.8,369.3    "></polygon>
			<polygon class="st187" points="577.2,369.5 577.2,394.2 577,394 577,369.4    "></polygon>
			<polygon class="st188" points="577.5,369.7 577.5,394.3 577.2,394.2 577.2,369.5    "></polygon>
			<polygon class="st189" points="577.7,369.8 577.7,394.4 577.5,394.3 577.5,369.7    "></polygon>
			<polygon class="st190" points="577.9,369.9 577.9,394.6 577.7,394.4 577.7,369.8    "></polygon>
			<polygon class="st191" points="578.2,370.1 578.2,394.7 577.9,394.6 577.9,369.9    "></polygon>
			<polygon class="st192" points="578.4,370.2 578.4,394.8 578.2,394.7 578.2,370.1    "></polygon>
			<polygon class="st193" points="578.6,370.3 578.6,395 578.4,394.8 578.4,370.2    "></polygon>
			<polygon class="st194" points="578.8,370.5 578.8,395.1 578.6,395 578.6,370.3    "></polygon>
			<polygon class="st195" points="579.1,370.6 579.1,395.2 578.8,395.1 578.8,370.5    "></polygon>
			<polygon class="st196" points="579.3,370.7 579.3,395.4 579.1,395.2 579.1,370.6    "></polygon>
			<polygon class="st197" points="579.5,370.9 579.5,395.5 579.3,395.4 579.3,370.7    "></polygon>
			<polygon class="st198" points="579.8,371 579.8,395.6 579.5,395.5 579.5,370.9    "></polygon>
			<polygon class="st199" points="580,371.1 580,395.8 579.8,395.6 579.8,371    "></polygon>
			<polygon class="st200" points="580.2,371.3 580.2,395.9 580,395.8 580,371.1    "></polygon>
			<polygon class="st201" points="580.5,371.4 580.5,396 580.2,395.9 580.2,371.3    "></polygon>
			<polygon class="st202" points="580.7,371.5 580.7,396.2 580.5,396 580.5,371.4    "></polygon>
			<polygon class="st203" points="580.9,371.7 580.9,396.3 580.7,396.2 580.7,371.5    "></polygon>
		</g>
	</g>
	<g>
		
			<linearGradient id="SVGID_53_" gradientUnits="userSpaceOnUse" x1="374.88" y1="545.1608" x2="547.21" y2="545.1608" gradientTransform="matrix(1 0 0 -1 0 862)">
			<stop offset="4.000000e-02" style="stop-color:#B8BEE7"></stop>
			<stop offset="0.5" style="stop-color:#DEE4F7"></stop>
		</linearGradient>
		<path class="st204" d="M384.1,258c-5.1-3-9.2,0.2-9.2,7s4.1,14.7,9.2,17.6l163.1,94.2v-24.6L384.1,258z"></path>
	</g>
	<polygon class="st205" points="568.1,385.6 563.6,377.1 565,376 569.5,384.5  "></polygon>
	<path class="st205" d="M561.9,378.8c-2.8-1.6-5.1-6-5.1-9.8s2.3-5.5,5.1-3.9s5.1,6,5.1,9.8c0.1,1.5-0.4,3-1.5,4   C564.4,379.6,563,379.6,561.9,378.8z M561.9,367.8c-1.7-1-3.1,0.1-3.1,2.4c0,2.4,1.2,4.6,3.1,5.9c0.6,0.5,1.5,0.5,2.2,0.1   c0.7-0.6,1-1.5,0.9-2.4C565,371.4,563.8,369.2,561.9,367.8z"></path>
	
		<linearGradient id="SVGID_54_" gradientUnits="userSpaceOnUse" x1="491.18" y1="473.72" x2="547.61" y2="473.72" gradientTransform="matrix(1 0 0 -1 0 862)">
		<stop offset="4.000000e-02" style="stop-color:#B8BEE7"></stop>
		<stop offset="0.5" style="stop-color:#DEE4F7"></stop>
	</linearGradient>
	<polygon class="st206" points="491.2,369.8 547.6,402.4 547.6,406.7 491.2,374.1  "></polygon>
	
		<linearGradient id="SVGID_55_" gradientUnits="userSpaceOnUse" x1="439.13" y1="494.39" x2="479.72" y2="494.39" gradientTransform="matrix(1 0 0 -1 0 862)">
		<stop offset="4.000000e-02" style="stop-color:#B8BEE7"></stop>
		<stop offset="0.5" style="stop-color:#DEE4F7"></stop>
	</linearGradient>
	<polygon class="st207" points="439.1,339.8 479.7,363.2 479.7,395.4 439.1,372  "></polygon>
	
		<linearGradient id="SVGID_56_" gradientUnits="userSpaceOnUse" x1="419.17" y1="526.455" x2="429.01" y2="526.455" gradientTransform="matrix(1 0 0 -1 0 862)">
		<stop offset="4.000000e-02" style="stop-color:#B8BEE7"></stop>
		<stop offset="0.5" style="stop-color:#DEE4F7"></stop>
	</linearGradient>
	<polygon class="st208" points="419.2,328.8 429,334.5 429,342.3 419.2,336.6  "></polygon>
	
		<linearGradient id="SVGID_57_" gradientUnits="userSpaceOnUse" x1="419.17" y1="514.555" x2="429.01" y2="514.555" gradientTransform="matrix(1 0 0 -1 0 862)">
		<stop offset="4.000000e-02" style="stop-color:#B8BEE7"></stop>
		<stop offset="0.5" style="stop-color:#DEE4F7"></stop>
	</linearGradient>
	<polygon class="st209" points="419.2,340.7 429,346.4 429,354.2 419.2,348.5  "></polygon>
	
		<linearGradient id="SVGID_58_" gradientUnits="userSpaceOnUse" x1="419.17" y1="502.665" x2="429.01" y2="502.665" gradientTransform="matrix(1 0 0 -1 0 862)">
		<stop offset="4.000000e-02" style="stop-color:#B8BEE7"></stop>
		<stop offset="0.5" style="stop-color:#DEE4F7"></stop>
	</linearGradient>
	<polygon class="st210" points="419.2,352.6 429,358.3 429,366.1 419.2,360.4  "></polygon>
	
		<linearGradient id="SVGID_59_" gradientUnits="userSpaceOnUse" x1="491.18" y1="460" x2="547.61" y2="460" gradientTransform="matrix(1 0 0 -1 0 862)">
		<stop offset="4.000000e-02" style="stop-color:#B8BEE7"></stop>
		<stop offset="0.5" style="stop-color:#DEE4F7"></stop>
	</linearGradient>
	<polygon class="st211" points="491.2,383.5 547.6,416.1 547.6,420.5 491.2,387.9  "></polygon>
	
		<linearGradient id="SVGID_60_" gradientUnits="userSpaceOnUse" x1="491.18" y1="445.83" x2="547.61" y2="445.83" gradientTransform="matrix(1 0 0 -1 0 862)">
		<stop offset="4.000000e-02" style="stop-color:#B8BEE7"></stop>
		<stop offset="0.5" style="stop-color:#DEE4F7"></stop>
	</linearGradient>
	<polygon class="st212" points="491.2,397.7 547.6,430.3 547.6,434.6 491.2,402  "></polygon>
	
		<linearGradient id="SVGID_61_" gradientUnits="userSpaceOnUse" x1="374.47" y1="543.055" x2="415.01" y2="543.055" gradientTransform="matrix(1 0 0 -1 0 862)">
		<stop offset="4.000000e-02" style="stop-color:#B8BEE7"></stop>
		<stop offset="0.5" style="stop-color:#DEE4F7"></stop>
	</linearGradient>
	<polygon class="st213" points="374.5,305 415,328.6 415,332.9 374.5,309.3  "></polygon>
	
		<linearGradient id="SVGID_62_" gradientUnits="userSpaceOnUse" x1="374.47" y1="531.095" x2="415.01" y2="531.095" gradientTransform="matrix(1 0 0 -1 0 862)">
		<stop offset="4.000000e-02" style="stop-color:#B8BEE7"></stop>
		<stop offset="0.5" style="stop-color:#DEE4F7"></stop>
	</linearGradient>
	<polygon class="st214" points="374.5,316.9 415,340.6 415,344.9 374.5,321.2  "></polygon>
	
		<linearGradient id="SVGID_63_" gradientUnits="userSpaceOnUse" x1="374.47" y1="519.13" x2="415.01" y2="519.13" gradientTransform="matrix(1 0 0 -1 0 862)">
		<stop offset="4.000000e-02" style="stop-color:#B8BEE7"></stop>
		<stop offset="0.5" style="stop-color:#DEE4F7"></stop>
	</linearGradient>
	<polygon class="st215" points="374.5,328.9 415,352.5 415,356.8 374.5,333.2  "></polygon>
</g>
<g>
	
		<linearGradient id="SVGID_64_" gradientUnits="userSpaceOnUse" x1="552.4817" y1="224.5656" x2="654.6288" y2="224.5656" gradientTransform="matrix(1 0 0 -1 0 862)">
		<stop offset="0" style="stop-color:#B8BEE7"></stop>
		<stop offset="1" style="stop-color:#B8BEE7;stop-opacity:0"></stop>
	</linearGradient>
	<path class="st216" d="M567.2,658.3c20,11.6,52.2,11.6,72.3,0s20.1-30.2,0.1-41.8s-52.1-11.5-72.1,0S547.4,646.8,567.2,658.3z"></path>
	
		<linearGradient id="SVGID_65_" gradientUnits="userSpaceOnUse" x1="551.0701" y1="220.015" x2="638.8901" y2="220.015" gradientTransform="matrix(1 0 0 -1 0 862)">
		<stop offset="0" style="stop-color:#FDD2A7"></stop>
		<stop offset="1" style="stop-color:#F83F76"></stop>
	</linearGradient>
	<path class="st217" d="M638.5,636.4c-1.2-5.4-5.3-10.6-12.4-14.8c-17.1-9.9-44.8-9.9-62,0c-7.2,4.2-11.4,9.4-12.6,14.8h-0.4v9h0.1   c0.4,6.2,4.6,12.2,12.7,16.9c17.2,10,44.9,10,62.2,0c8.1-4.7,12.4-10.8,12.8-16.9h0.1v-9H638.5z M571.4,653.2   c-5.4-3.1-8.5-7-9.3-11.1c0.9-4.1,4.1-8.1,9.6-11.3c13-7.5,33.9-7.5,46.8,0c5.4,3.2,8.5,7.1,9.4,11.2c-0.9,4.1-4,8.1-9.5,11.2   C605.4,660.7,584.4,660.7,571.4,653.2L571.4,653.2z"></path>
	
		<linearGradient id="SVGID_66_" gradientUnits="userSpaceOnUse" x1="551.1171" y1="226.2031" x2="638.9525" y2="226.2031" gradientTransform="matrix(1 0 0 -1 0 862)">
		<stop offset="0" style="stop-color:#FDD2A7"></stop>
		<stop offset="1" style="stop-color:#F83F76"></stop>
	</linearGradient>
	<path class="st218" d="M563.8,653.8c17.2,10,44.9,10,62.2,0s17.3-26,0.1-36s-44.8-9.9-62,0S546.8,643.9,563.8,653.8z M570.8,621.7   c13.5-7.8,35.2-7.8,48.6,0s13.4,20.4-0.1,28.2s-35.3,7.8-48.8,0S557.2,629.5,570.8,621.7z"></path>
	<linearGradient id="SVGID_67_" gradientUnits="userSpaceOnUse" x1="551.1171" y1="635.7969" x2="638.9525" y2="635.7969">
		<stop offset="0" style="stop-color:#FB9576"></stop>
		<stop offset="1" style="stop-color:#F52847"></stop>
	</linearGradient>
	<path class="st219" d="M563.8,653.8c17.2,10,44.9,10,62.2,0s17.3-26,0.1-36s-44.8-9.9-62,0S546.8,643.9,563.8,653.8z M570.8,621.7   c13.5-7.8,35.2-7.8,48.6,0s13.4,20.4-0.1,28.2s-35.3,7.8-48.8,0S557.2,629.5,570.8,621.7z"></path>
	<path class="st220" d="M570.8,625.9c13.5-7.8,35.2-7.8,48.6,0c5.8,3.4,9.1,7.6,9.8,12c-0.8,4.4-4.1,8.7-9.9,12   c-13.5,7.8-35.3,7.8-48.8,0c-5.7-3.3-9-7.6-9.8-11.9C561.6,633.6,564.9,629.3,570.8,625.9z"></path>
	<g class="st221">
		<g>
			<defs>
				<path id="SVGID_68_" d="M570.8,625.9c13.5-7.8,35.2-7.8,48.6,0c5.8,3.4,9.1,7.6,9.8,12c-0.8,4.4-4.1,8.7-9.9,12      c-13.5,7.8-35.3,7.8-48.8,0c-5.7-3.3-9-7.6-9.8-11.9C561.6,633.6,564.9,629.3,570.8,625.9z"></path>
			</defs>
			<clipPath id="SVGID_69_">
				<use xlink:href="#SVGID_68_" style="overflow:visible;"></use>
			</clipPath>
			<g class="st222">
				<g class="st223">
					
						<rect x="543.7" y="636.5" transform="matrix(0.186 -0.9825 0.9825 0.186 -144.9374 1111.7568)" class="st224" width="109.6" height="13.8"></rect>
					<g class="st225">
						<rect x="532.1" y="628" transform="matrix(0.186 -0.9825 0.9825 0.186 -143.2397 1091.1301)" width="109.6" height="8"></rect>
					</g>
				</g>
			</g>
		</g>
	</g>
	
		<linearGradient id="SVGID_70_" gradientUnits="userSpaceOnUse" x1="536.34" y1="200.284" x2="560.79" y2="200.284" gradientTransform="matrix(1 0 0 -1 0 862)">
		<stop offset="0" style="stop-color:#FDD2A7"></stop>
		<stop offset="1" style="stop-color:#F83F76"></stop>
	</linearGradient>
	<path class="st226" d="M536.6,664.8l20.2-11.7l0,0c0.5-0.2,1.1-0.2,1.6,0.2c1.4,0.9,2.2,2.4,2.3,4c0,0.5-0.2,1.1-0.6,1.4l-0.1,0.1   H560l-20.2,11.7l0,0l-3.5-5.4C536.4,665,536.5,664.9,536.6,664.8z"></path>
	
		<linearGradient id="SVGID_71_" gradientUnits="userSpaceOnUse" x1="496.4199" y1="185.298" x2="551.0731" y2="185.298" gradientTransform="matrix(1 0 0 -1 0 862)">
		<stop offset="0" style="stop-color:#F0F2FE"></stop>
		<stop offset="1" style="stop-color:#C8CDF0"></stop>
	</linearGradient>
	<path class="st227" d="M497.1,683.7l45.3-26.1l0,0c1.2-0.5,2.6-0.4,3.6,0.4c3,2,4.9,5.2,5.1,8.8c0.1,1.2-0.4,2.4-1.3,3.1l-0.2,0.1   l-0.2,0.1l-45.2,26h-0.1l-7.8-12.1C496.6,683.9,496.9,683.8,497.1,683.7z"></path>
	
		<linearGradient id="SVGID_72_" gradientUnits="userSpaceOnUse" x1="-10416.6035" y1="189.9264" x2="-10448.2832" y2="151.6664" gradientTransform="matrix(1 0 0 -1 10931.9805 862)">
		<stop offset="0" style="stop-color:#F0F2FE"></stop>
		<stop offset="1" style="stop-color:#C8CDF0"></stop>
	</linearGradient>
	<path class="st228" d="M500.6,684c3,2,5,5.3,5.2,8.9c0,3.3-2.3,4.6-5.2,3c-3.1-2-5-5.3-5.2-8.9C495.4,683.7,497.7,682.4,500.6,684"></path>
	<g>
		<path class="st229" d="M500.6,684c3,2,5,5.3,5.2,8.9c0,3.3-2.3,4.6-5.2,3c-3.1-2-5-5.3-5.2-8.9C495.4,683.7,497.7,682.4,500.6,684    "></path>
	</g>
	<path class="st230" d="M546,671.9c-0.1,0.1-0.2,0.2-0.4,0.2l0.2-0.1L546,671.9z"></path>
</g>
</svg>